<?xml version="1.0" encoding="utf-8"?>
<!-- Generator: Adobe Illustrator 23.0.3, SVG Export Plug-In . SVG Version: 6.00 Build 0)  -->
<svg version="1.1" id="Layer_1" xmlns="http://www.w3.org/2000/svg" xmlns:xlink="http://www.w3.org/1999/xlink" x="0px" y="0px"
	 viewBox="0 0 1000 1000" style="enable-background:new 0 0 1000 1000;" xml:space="preserve">
<style type="text/css">
	.st0{display:none;opacity:0.95;enable-background:new    ;}
	.st1{enable-background:new    ;}
	.st2{fill:#F6E1C6;}
	.st3{fill:none;stroke:#F6E1C6;stroke-miterlimit:10;}
	.st4{display:none;fill:none;stroke:#F6E1C6;stroke-width:4;stroke-linecap:round;stroke-linejoin:round;stroke-miterlimit:10;}
	.st5{clip-path:url(#SVGID_2_);}
	.st6{display:none;}
	.st7{display:inline;fill:none;stroke:#F6E1C6;stroke-width:4;stroke-linecap:round;stroke-miterlimit:10;}
	.st8{fill:none;stroke:#F6E1C6;stroke-width:3;stroke-linecap:round;stroke-miterlimit:10;}
</style>
<rect class="st0" width="1000" height="1000"/>
<g class="st1">
	<path class="st2" d="M274.1,505.9c0,3-0.5,5.6-1.6,7.9s-2.6,4.3-4.5,5.9s-4.2,2.8-6.8,3.6c-2.6,0.8-5.4,1.2-8.5,1.2
		c-2.1,0-4.1-0.2-5.9-0.5c-1.8-0.4-3.4-0.8-4.8-1.3c-1.4-0.5-2.6-1.1-3.6-1.6c-1-0.6-1.6-1-2-1.4c-0.4-0.4-0.7-0.9-0.8-1.5
		c-0.2-0.6-0.3-1.4-0.3-2.4c0-0.7,0-1.3,0.1-1.8c0.1-0.5,0.2-0.9,0.3-1.1c0.1-0.3,0.3-0.5,0.5-0.6c0.2-0.1,0.4-0.2,0.7-0.2
		c0.5,0,1.1,0.3,1.9,0.8c0.8,0.6,1.9,1.2,3.2,1.8c1.3,0.7,2.9,1.3,4.7,1.8c1.8,0.6,4,0.9,6.4,0.9c1.8,0,3.5-0.2,5-0.7
		c1.5-0.5,2.8-1.2,3.9-2.1c1.1-0.9,1.9-2,2.5-3.3s0.9-2.8,0.9-4.4c0-1.8-0.4-3.3-1.2-4.6c-0.8-1.3-1.9-2.4-3.2-3.3
		c-1.3-1-2.9-1.8-4.6-2.6c-1.7-0.8-3.5-1.6-5.3-2.4c-1.8-0.8-3.5-1.8-5.2-2.8c-1.7-1-3.2-2.2-4.5-3.6c-1.3-1.4-2.4-3-3.2-4.8
		c-0.8-1.8-1.2-4-1.2-6.6c0-2.6,0.5-5,1.4-7.1c1-2.1,2.3-3.8,4-5.2c1.7-1.4,3.7-2.5,6.1-3.2c2.4-0.7,4.9-1.1,7.6-1.1
		c1.4,0,2.8,0.1,4.2,0.4s2.8,0.6,4,1c1.3,0.4,2.4,0.9,3.3,1.4s1.6,0.9,1.9,1.2s0.5,0.6,0.6,0.7c0.1,0.2,0.2,0.4,0.2,0.7
		c0.1,0.3,0.1,0.6,0.1,1c0,0.4,0,0.9,0,1.5c0,0.6,0,1.1-0.1,1.6c0,0.5-0.1,0.8-0.2,1.1c-0.1,0.3-0.2,0.5-0.4,0.7
		c-0.2,0.1-0.4,0.2-0.6,0.2c-0.4,0-0.9-0.2-1.7-0.7c-0.8-0.5-1.7-1-2.8-1.5c-1.1-0.6-2.4-1.1-3.9-1.6c-1.5-0.5-3.2-0.7-5.1-0.7
		c-1.8,0-3.3,0.2-4.6,0.7c-1.3,0.5-2.4,1.1-3.2,1.9c-0.8,0.8-1.5,1.7-1.9,2.8c-0.4,1.1-0.6,2.2-0.6,3.4c0,1.8,0.4,3.3,1.2,4.5
		c0.8,1.3,1.9,2.4,3.2,3.4c1.4,1,2.9,1.9,4.6,2.7c1.7,0.8,3.5,1.6,5.3,2.5c1.8,0.8,3.5,1.7,5.3,2.7c1.7,1,3.3,2.2,4.6,3.5
		c1.4,1.4,2.4,2.9,3.3,4.8C273.7,501.2,274.1,503.4,274.1,505.9z"/>
	<path class="st2" d="M324.9,478.9c0,3.2-0.5,6-1.6,8.5c-1,2.5-2.5,4.7-4.5,6.5c-1.9,1.8-4.3,3.2-7.1,4.2c-2.8,1-6.2,1.5-10.1,1.5
		h-7.2v22.8c0,0.3-0.1,0.5-0.2,0.7c-0.1,0.2-0.4,0.3-0.7,0.5c-0.3,0.1-0.7,0.2-1.3,0.3c-0.5,0.1-1.2,0.1-2,0.1c-0.8,0-1.5,0-2-0.1
		c-0.5-0.1-1-0.2-1.3-0.3c-0.3-0.1-0.6-0.3-0.7-0.5c-0.1-0.2-0.2-0.4-0.2-0.7V464c0-1.3,0.3-2.2,1-2.8c0.7-0.6,1.4-0.8,2.3-0.8H303
		c1.4,0,2.7,0.1,3.9,0.2c1.3,0.1,2.7,0.4,4.4,0.7c1.7,0.4,3.5,1.1,5.2,2.1c1.8,1,3.3,2.3,4.5,3.8c1.2,1.5,2.2,3.2,2.9,5.2
		C324.6,474.4,324.9,476.6,324.9,478.9z M316.1,479.6c0-2.6-0.5-4.7-1.4-6.4c-1-1.7-2.1-3-3.6-3.9c-1.4-0.8-2.9-1.4-4.4-1.6
		c-1.5-0.2-3-0.3-4.4-0.3h-7.8v25.4h7.6c2.5,0,4.6-0.3,6.3-1c1.7-0.7,3.1-1.6,4.2-2.7c1.1-1.2,2-2.5,2.6-4.2
		S316.1,481.5,316.1,479.6z"/>
	<path class="st2" d="M373,520.2c0,0.6,0,1.1-0.1,1.5c-0.1,0.4-0.2,0.8-0.3,1.1c-0.2,0.3-0.4,0.5-0.6,0.6c-0.2,0.1-0.4,0.2-0.7,0.2
		h-30.3c-0.7,0-1.5-0.3-2.1-0.8c-0.7-0.5-1-1.4-1-2.7v-56.4c0-1.3,0.3-2.2,1-2.7c0.7-0.5,1.4-0.8,2.1-0.8h30c0.3,0,0.5,0.1,0.7,0.2
		c0.2,0.1,0.4,0.3,0.5,0.6c0.1,0.3,0.2,0.7,0.3,1.1c0.1,0.4,0.1,1,0.1,1.6c0,0.6,0,1.1-0.1,1.5c-0.1,0.4-0.2,0.8-0.3,1.1
		c-0.1,0.3-0.3,0.5-0.5,0.6c-0.2,0.1-0.4,0.2-0.7,0.2h-24.7v19.8h21.2c0.3,0,0.5,0.1,0.7,0.2c0.2,0.1,0.4,0.4,0.5,0.6
		c0.1,0.3,0.3,0.6,0.3,1.1c0.1,0.5,0.1,1,0.1,1.6c0,0.6,0,1.1-0.1,1.5c-0.1,0.4-0.2,0.8-0.3,1c-0.1,0.3-0.3,0.4-0.5,0.6
		c-0.2,0.1-0.4,0.2-0.7,0.2h-21.2v22.6h25.1c0.3,0,0.5,0.1,0.7,0.2c0.2,0.1,0.4,0.3,0.6,0.6c0.2,0.3,0.3,0.6,0.3,1.1
		C372.9,519,373,519.5,373,520.2z"/>
	<path class="st2" d="M427.7,514.7c0,0.5,0,1,0,1.4c0,0.4-0.1,0.7-0.2,1c-0.1,0.3-0.2,0.6-0.3,0.8c-0.1,0.2-0.4,0.5-0.7,0.8
		c-0.3,0.3-1,0.8-2.1,1.5c-1,0.7-2.3,1.3-3.9,2c-1.5,0.6-3.3,1.2-5.3,1.6s-4.2,0.7-6.6,0.7c-4.1,0-7.8-0.7-11.1-2.1
		c-3.3-1.4-6.1-3.4-8.5-6.1c-2.3-2.7-4.1-6-5.4-9.9c-1.3-3.9-1.9-8.4-1.9-13.6c0-5.2,0.7-9.9,2-14c1.4-4.1,3.2-7.6,5.7-10.4
		c2.4-2.8,5.4-5,8.8-6.5c3.4-1.5,7.2-2.2,11.3-2.2c1.8,0,3.6,0.2,5.3,0.5c1.7,0.3,3.3,0.8,4.8,1.3c1.5,0.5,2.8,1.1,3.9,1.8
		c1.1,0.7,1.9,1.2,2.4,1.7c0.4,0.4,0.7,0.8,0.9,1c0.1,0.2,0.2,0.5,0.3,0.8c0.1,0.3,0.1,0.7,0.2,1.1c0,0.4,0.1,0.9,0.1,1.5
		c0,0.7,0,1.2-0.1,1.7c-0.1,0.5-0.2,0.8-0.3,1.1c-0.1,0.3-0.3,0.5-0.5,0.7s-0.4,0.2-0.7,0.2c-0.5,0-1.1-0.3-1.9-1
		c-0.8-0.6-1.9-1.3-3.2-2.1c-1.3-0.8-2.9-1.5-4.7-2.1c-1.9-0.6-4.1-1-6.7-1c-2.8,0-5.4,0.6-7.7,1.7s-4.3,2.8-5.9,5
		c-1.6,2.2-2.9,4.8-3.8,8c-0.9,3.1-1.4,6.7-1.4,10.8c0,4,0.4,7.5,1.3,10.6c0.9,3.1,2.1,5.7,3.7,7.7c1.6,2.1,3.6,3.6,6,4.7
		s5,1.6,8,1.6c2.5,0,4.7-0.3,6.6-0.9c1.9-0.6,3.5-1.3,4.8-2.1s2.4-1.5,3.3-2.1c0.9-0.6,1.5-0.9,2-0.9c0.2,0,0.4,0,0.6,0.1
		c0.2,0.1,0.3,0.3,0.4,0.6c0.1,0.3,0.2,0.7,0.2,1.1S427.7,514,427.7,514.7z"/>
	<path class="st2" d="M478.9,464c0,0.6,0,1.2-0.1,1.6c-0.1,0.5-0.2,0.8-0.3,1.1c-0.1,0.3-0.3,0.5-0.5,0.6c-0.2,0.1-0.4,0.2-0.7,0.2
		h-17.8v54.8c0,0.3-0.1,0.5-0.2,0.7c-0.1,0.2-0.4,0.3-0.7,0.5c-0.3,0.1-0.8,0.2-1.3,0.3c-0.5,0.1-1.2,0.1-2,0.1c-0.8,0-1.4,0-2-0.1
		c-0.6-0.1-1-0.2-1.3-0.3c-0.3-0.1-0.6-0.3-0.7-0.5c-0.1-0.2-0.2-0.4-0.2-0.7v-54.8h-17.8c-0.3,0-0.5-0.1-0.7-0.2
		c-0.2-0.1-0.4-0.3-0.5-0.6c-0.1-0.3-0.2-0.6-0.3-1.1c-0.1-0.5-0.1-1-0.1-1.6c0-0.6,0-1.2,0.1-1.6c0.1-0.5,0.2-0.9,0.3-1.1
		c0.1-0.3,0.3-0.5,0.5-0.6c0.2-0.1,0.4-0.2,0.7-0.2h44c0.3,0,0.5,0.1,0.7,0.2c0.2,0.1,0.4,0.3,0.5,0.6c0.1,0.3,0.3,0.7,0.3,1.1
		C478.9,462.9,478.9,463.4,478.9,464z"/>
	<path class="st2" d="M530.2,522.4c0,0.3,0,0.5-0.1,0.7c-0.1,0.2-0.3,0.4-0.6,0.5c-0.3,0.1-0.8,0.2-1.4,0.3s-1.4,0.1-2.3,0.1
		c-0.8,0-1.5,0-2.1-0.1s-1-0.2-1.3-0.3c-0.3-0.1-0.6-0.3-0.8-0.6c-0.2-0.3-0.3-0.6-0.5-1l-5.8-14.9c-0.7-1.7-1.4-3.2-2.1-4.7
		c-0.7-1.4-1.6-2.6-2.6-3.7c-1-1-2.2-1.8-3.6-2.4c-1.4-0.6-3-0.9-4.9-0.9h-5.6v26.9c0,0.3-0.1,0.5-0.2,0.7c-0.1,0.2-0.4,0.3-0.7,0.5
		c-0.3,0.1-0.7,0.2-1.3,0.3c-0.5,0.1-1.2,0.1-2,0.1c-0.8,0-1.5,0-2-0.1c-0.5-0.1-1-0.2-1.3-0.3c-0.3-0.1-0.6-0.3-0.7-0.5
		c-0.1-0.2-0.2-0.4-0.2-0.7v-58.5c0-1.3,0.3-2.2,1-2.7c0.7-0.5,1.4-0.8,2.1-0.8h13.4c1.6,0,2.9,0,4,0.1s2,0.2,2.9,0.3
		c2.4,0.4,4.6,1.1,6.5,2c1.9,0.9,3.4,2.1,4.7,3.5c1.3,1.4,2.2,3,2.9,4.8c0.6,1.8,1,3.8,1,6c0,2.1-0.3,4-0.9,5.7
		c-0.6,1.7-1.4,3.2-2.5,4.4c-1.1,1.3-2.4,2.4-3.9,3.3c-1.5,0.9-3.2,1.7-5,2.4c1,0.5,2,1,2.8,1.7c0.8,0.7,1.6,1.5,2.4,2.5
		c0.7,1,1.4,2.1,2.1,3.4c0.7,1.3,1.3,2.7,2,4.3l5.7,13.9c0.5,1.2,0.7,2,0.9,2.5C530.2,521.7,530.2,522.1,530.2,522.4z M517.6,478
		c0-2.5-0.6-4.6-1.7-6.3s-3-2.9-5.6-3.7c-0.8-0.2-1.7-0.4-2.8-0.5c-1-0.1-2.4-0.1-4-0.1h-7.1v21.3h8.2c2.2,0,4.1-0.3,5.7-0.8
		c1.6-0.5,3-1.3,4-2.2c1.1-1,1.9-2.1,2.4-3.4C517.3,480.9,517.6,479.5,517.6,478z"/>
	<path class="st2" d="M590,500.3c0,3.8-0.6,7.3-1.7,10.3c-1.1,3-2.7,5.6-4.8,7.6c-2.1,2.1-4.6,3.7-7.6,4.7c-3,1.1-6.4,1.6-10.2,1.6
		c-3.5,0-6.7-0.5-9.5-1.5c-2.9-1-5.3-2.5-7.4-4.5c-2.1-2-3.6-4.4-4.7-7.4s-1.7-6.4-1.7-10.3v-39.2c0-0.3,0.1-0.5,0.2-0.7
		s0.4-0.3,0.7-0.5c0.3-0.1,0.7-0.2,1.3-0.3c0.5-0.1,1.2-0.1,2.1-0.1c0.8,0,1.4,0,2,0.1c0.6,0.1,1,0.2,1.3,0.3s0.5,0.3,0.7,0.5
		c0.1,0.2,0.2,0.4,0.2,0.7v38.2c0,2.9,0.4,5.5,1.1,7.7c0.7,2.2,1.8,4,3.1,5.4c1.4,1.5,3,2.5,4.9,3.3c1.9,0.7,4,1.1,6.4,1.1
		c2.4,0,4.6-0.4,6.5-1.1c1.9-0.7,3.5-1.8,4.8-3.2c1.3-1.4,2.3-3.2,3-5.3s1.1-4.6,1.1-7.4v-38.6c0-0.3,0.1-0.5,0.2-0.7
		c0.1-0.2,0.4-0.3,0.7-0.5c0.3-0.1,0.8-0.2,1.3-0.3c0.5-0.1,1.2-0.1,2-0.1c0.8,0,1.4,0,2,0.1c0.5,0.1,1,0.2,1.3,0.3
		c0.3,0.1,0.5,0.3,0.7,0.5s0.2,0.4,0.2,0.7V500.3z"/>
	<path class="st2" d="M675.4,522.4c0,0.3-0.1,0.5-0.2,0.7c-0.1,0.2-0.4,0.3-0.7,0.5s-0.8,0.2-1.3,0.3c-0.5,0.1-1.2,0.1-2,0.1
		c-0.8,0-1.4,0-2-0.1c-0.6-0.1-1-0.2-1.3-0.3s-0.5-0.3-0.7-0.5c-0.1-0.2-0.2-0.4-0.2-0.7v-55.1h-0.1l-22.3,55.3
		c-0.1,0.2-0.2,0.4-0.4,0.6c-0.2,0.2-0.4,0.3-0.8,0.4c-0.3,0.1-0.7,0.2-1.2,0.2c-0.5,0-1,0.1-1.7,0.1c-0.7,0-1.3,0-1.8-0.1
		c-0.5-0.1-0.9-0.2-1.2-0.3c-0.3-0.1-0.6-0.3-0.8-0.4c-0.2-0.2-0.3-0.3-0.4-0.5l-21.3-55.3h0v55.1c0,0.3-0.1,0.5-0.2,0.7
		c-0.1,0.2-0.4,0.3-0.7,0.5s-0.8,0.2-1.3,0.3c-0.5,0.1-1.2,0.1-2.1,0.1c-0.8,0-1.5,0-2-0.1c-0.5-0.1-1-0.2-1.3-0.3s-0.5-0.3-0.7-0.5
		c-0.1-0.2-0.2-0.4-0.2-0.7v-58.1c0-1.4,0.4-2.3,1.1-2.9c0.7-0.6,1.5-0.9,2.4-0.9h5.2c1.1,0,2,0.1,2.8,0.3s1.5,0.5,2.1,0.9
		c0.6,0.4,1.1,1,1.5,1.6c0.4,0.7,0.7,1.4,1,2.3l18.1,45.8h0.2l18.8-45.6c0.4-1,0.8-1.8,1.2-2.5c0.4-0.7,0.9-1.2,1.4-1.6
		c0.5-0.4,1.1-0.7,1.7-0.9s1.4-0.3,2.2-0.3h5.4c0.5,0,1,0.1,1.4,0.2s0.8,0.4,1.1,0.7c0.3,0.3,0.6,0.7,0.8,1.2
		c0.2,0.5,0.3,1.1,0.3,1.7V522.4z"/>
	<path class="st2" d="M762.1,520.7c0.3,0.7,0.4,1.3,0.4,1.7c0,0.4-0.1,0.8-0.4,1c-0.3,0.2-0.7,0.4-1.3,0.4c-0.6,0.1-1.4,0.1-2.4,0.1
		s-1.8,0-2.4-0.1c-0.6,0-1.1-0.1-1.4-0.2c-0.3-0.1-0.5-0.3-0.7-0.5s-0.3-0.4-0.4-0.7l-5.4-15.4h-26.3l-5.2,15.2
		c-0.1,0.3-0.2,0.5-0.4,0.8s-0.4,0.4-0.7,0.5c-0.3,0.1-0.8,0.3-1.3,0.3c-0.6,0.1-1.3,0.1-2.2,0.1c-0.9,0-1.7,0-2.3-0.1
		c-0.6-0.1-1-0.2-1.3-0.5c-0.2-0.2-0.4-0.6-0.3-1c0-0.4,0.2-1,0.4-1.7l21.2-58.7c0.1-0.4,0.3-0.7,0.5-0.9c0.2-0.2,0.5-0.4,0.9-0.5
		s0.9-0.2,1.6-0.3c0.6,0,1.4-0.1,2.4-0.1c1,0,1.9,0,2.6,0.1c0.7,0,1.2,0.1,1.7,0.3c0.4,0.1,0.7,0.3,1,0.6s0.4,0.5,0.5,0.9
		L762.1,520.7z M734.9,468.8L734.9,468.8L724,500.3h22L734.9,468.8z"/>
</g>
<g class="st1">
	<path class="st3" d="M274.1,505.9c0,3-0.5,5.6-1.6,7.9s-2.6,4.3-4.5,5.9s-4.2,2.8-6.8,3.6c-2.6,0.8-5.4,1.2-8.5,1.2
		c-2.1,0-4.1-0.2-5.9-0.5c-1.8-0.4-3.4-0.8-4.8-1.3c-1.4-0.5-2.6-1.1-3.6-1.6c-1-0.6-1.6-1-2-1.4c-0.4-0.4-0.7-0.9-0.8-1.5
		c-0.2-0.6-0.3-1.4-0.3-2.4c0-0.7,0-1.3,0.1-1.8c0.1-0.5,0.2-0.9,0.3-1.1c0.1-0.3,0.3-0.5,0.5-0.6c0.2-0.1,0.4-0.2,0.7-0.2
		c0.5,0,1.1,0.3,1.9,0.8c0.8,0.6,1.9,1.2,3.2,1.8c1.3,0.7,2.9,1.3,4.7,1.8c1.8,0.6,4,0.9,6.4,0.9c1.8,0,3.5-0.2,5-0.7
		c1.5-0.5,2.8-1.2,3.9-2.1c1.1-0.9,1.9-2,2.5-3.3s0.9-2.8,0.9-4.4c0-1.8-0.4-3.3-1.2-4.6c-0.8-1.3-1.9-2.4-3.2-3.3
		c-1.3-1-2.9-1.8-4.6-2.6c-1.7-0.8-3.5-1.6-5.3-2.4c-1.8-0.8-3.5-1.8-5.2-2.8c-1.7-1-3.2-2.2-4.5-3.6c-1.3-1.4-2.4-3-3.2-4.8
		c-0.8-1.8-1.2-4-1.2-6.6c0-2.6,0.5-5,1.4-7.1c1-2.1,2.3-3.8,4-5.2c1.7-1.4,3.7-2.5,6.1-3.2c2.4-0.7,4.9-1.1,7.6-1.1
		c1.4,0,2.8,0.1,4.2,0.4s2.8,0.6,4,1c1.3,0.4,2.4,0.9,3.3,1.4s1.6,0.9,1.9,1.2s0.5,0.6,0.6,0.7c0.1,0.2,0.2,0.4,0.2,0.7
		c0.1,0.3,0.1,0.6,0.1,1c0,0.4,0,0.9,0,1.5c0,0.6,0,1.1-0.1,1.6c0,0.5-0.1,0.8-0.2,1.1c-0.1,0.3-0.2,0.5-0.4,0.7
		c-0.2,0.1-0.4,0.2-0.6,0.2c-0.4,0-0.9-0.2-1.7-0.7c-0.8-0.5-1.7-1-2.8-1.5c-1.1-0.6-2.4-1.1-3.9-1.6c-1.5-0.5-3.2-0.7-5.1-0.7
		c-1.8,0-3.3,0.2-4.6,0.7c-1.3,0.5-2.4,1.1-3.2,1.9c-0.8,0.8-1.5,1.7-1.9,2.8c-0.4,1.1-0.6,2.2-0.6,3.4c0,1.8,0.4,3.3,1.2,4.5
		c0.8,1.3,1.9,2.4,3.2,3.4c1.4,1,2.9,1.9,4.6,2.7c1.7,0.8,3.5,1.6,5.3,2.5c1.8,0.8,3.5,1.7,5.3,2.7c1.7,1,3.3,2.2,4.6,3.5
		c1.4,1.4,2.4,2.9,3.3,4.8C273.7,501.2,274.1,503.4,274.1,505.9z"/>
	<path class="st3" d="M324.9,478.9c0,3.2-0.5,6-1.6,8.5c-1,2.5-2.5,4.7-4.5,6.5c-1.9,1.8-4.3,3.2-7.1,4.2c-2.8,1-6.2,1.5-10.1,1.5
		h-7.2v22.8c0,0.3-0.1,0.5-0.2,0.7c-0.1,0.2-0.4,0.3-0.7,0.5c-0.3,0.1-0.7,0.2-1.3,0.3c-0.5,0.1-1.2,0.1-2,0.1c-0.8,0-1.5,0-2-0.1
		c-0.5-0.1-1-0.2-1.3-0.3c-0.3-0.1-0.6-0.3-0.7-0.5c-0.1-0.2-0.2-0.4-0.2-0.7V464c0-1.3,0.3-2.2,1-2.8c0.7-0.6,1.4-0.8,2.3-0.8H303
		c1.4,0,2.7,0.1,3.9,0.2c1.3,0.1,2.7,0.4,4.4,0.7c1.7,0.4,3.5,1.1,5.2,2.1c1.8,1,3.3,2.3,4.5,3.8c1.2,1.5,2.2,3.2,2.9,5.2
		C324.6,474.4,324.9,476.6,324.9,478.9z M316.1,479.6c0-2.6-0.5-4.7-1.4-6.4c-1-1.7-2.1-3-3.6-3.9c-1.4-0.8-2.9-1.4-4.4-1.6
		c-1.5-0.2-3-0.3-4.4-0.3h-7.8v25.4h7.6c2.5,0,4.6-0.3,6.3-1c1.7-0.7,3.1-1.6,4.2-2.7c1.1-1.2,2-2.5,2.6-4.2
		S316.1,481.5,316.1,479.6z"/>
	<path class="st3" d="M373,520.2c0,0.6,0,1.1-0.1,1.5c-0.1,0.4-0.2,0.8-0.3,1.1c-0.2,0.3-0.4,0.5-0.6,0.6c-0.2,0.1-0.4,0.2-0.7,0.2
		h-30.3c-0.7,0-1.5-0.3-2.1-0.8c-0.7-0.5-1-1.4-1-2.7v-56.4c0-1.3,0.3-2.2,1-2.7c0.7-0.5,1.4-0.8,2.1-0.8h30c0.3,0,0.5,0.1,0.7,0.2
		c0.2,0.1,0.4,0.3,0.5,0.6c0.1,0.3,0.2,0.7,0.3,1.1c0.1,0.4,0.1,1,0.1,1.6c0,0.6,0,1.1-0.1,1.5c-0.1,0.4-0.2,0.8-0.3,1.1
		c-0.1,0.3-0.3,0.5-0.5,0.6c-0.2,0.1-0.4,0.2-0.7,0.2h-24.7v19.8h21.2c0.3,0,0.5,0.1,0.7,0.2c0.2,0.1,0.4,0.4,0.5,0.6
		c0.1,0.3,0.3,0.6,0.3,1.1c0.1,0.5,0.1,1,0.1,1.6c0,0.6,0,1.1-0.1,1.5c-0.1,0.4-0.2,0.8-0.3,1c-0.1,0.3-0.3,0.4-0.5,0.6
		c-0.2,0.1-0.4,0.2-0.7,0.2h-21.2v22.6h25.1c0.3,0,0.5,0.1,0.7,0.2c0.2,0.1,0.4,0.3,0.6,0.6c0.2,0.3,0.3,0.6,0.3,1.1
		C372.9,519,373,519.5,373,520.2z"/>
	<path class="st3" d="M427.7,514.7c0,0.5,0,1,0,1.4c0,0.4-0.1,0.7-0.2,1c-0.1,0.3-0.2,0.6-0.3,0.8c-0.1,0.2-0.4,0.5-0.7,0.8
		c-0.3,0.3-1,0.8-2.1,1.5c-1,0.7-2.3,1.3-3.9,2c-1.5,0.6-3.3,1.2-5.3,1.6s-4.2,0.7-6.6,0.7c-4.1,0-7.8-0.7-11.1-2.1
		c-3.3-1.4-6.1-3.4-8.5-6.1c-2.3-2.7-4.1-6-5.4-9.9c-1.3-3.9-1.9-8.4-1.9-13.6c0-5.2,0.7-9.9,2-14c1.4-4.1,3.2-7.6,5.7-10.4
		c2.4-2.8,5.4-5,8.8-6.5c3.4-1.5,7.2-2.2,11.3-2.2c1.8,0,3.6,0.2,5.3,0.5c1.7,0.3,3.3,0.8,4.8,1.3c1.5,0.5,2.8,1.1,3.9,1.8
		c1.1,0.7,1.9,1.2,2.4,1.7c0.4,0.4,0.7,0.8,0.9,1c0.1,0.2,0.2,0.5,0.3,0.8c0.1,0.3,0.1,0.7,0.2,1.1c0,0.4,0.1,0.9,0.1,1.5
		c0,0.7,0,1.2-0.1,1.7c-0.1,0.5-0.2,0.8-0.3,1.1c-0.1,0.3-0.3,0.5-0.5,0.7s-0.4,0.2-0.7,0.2c-0.5,0-1.1-0.3-1.9-1
		c-0.8-0.6-1.9-1.3-3.2-2.1c-1.3-0.8-2.9-1.5-4.7-2.1c-1.9-0.6-4.1-1-6.7-1c-2.8,0-5.4,0.6-7.7,1.7s-4.3,2.8-5.9,5
		c-1.6,2.2-2.9,4.8-3.8,8c-0.9,3.1-1.4,6.7-1.4,10.8c0,4,0.4,7.5,1.3,10.6c0.9,3.1,2.1,5.7,3.7,7.7c1.6,2.1,3.6,3.6,6,4.7
		s5,1.6,8,1.6c2.5,0,4.7-0.3,6.6-0.9c1.9-0.6,3.5-1.3,4.8-2.1s2.4-1.5,3.3-2.1c0.9-0.6,1.5-0.9,2-0.9c0.2,0,0.4,0,0.6,0.1
		c0.2,0.1,0.3,0.3,0.4,0.6c0.1,0.3,0.2,0.7,0.2,1.1S427.7,514,427.7,514.7z"/>
	<path class="st3" d="M478.9,464c0,0.6,0,1.2-0.1,1.6c-0.1,0.5-0.2,0.8-0.3,1.1c-0.1,0.3-0.3,0.5-0.5,0.6c-0.2,0.1-0.4,0.2-0.7,0.2
		h-17.8v54.8c0,0.3-0.1,0.5-0.2,0.7c-0.1,0.2-0.4,0.3-0.7,0.5c-0.3,0.1-0.8,0.2-1.3,0.3c-0.5,0.1-1.2,0.1-2,0.1c-0.8,0-1.4,0-2-0.1
		c-0.6-0.1-1-0.2-1.3-0.3c-0.3-0.1-0.6-0.3-0.7-0.5c-0.1-0.2-0.2-0.4-0.2-0.7v-54.8h-17.8c-0.3,0-0.5-0.1-0.7-0.2
		c-0.2-0.1-0.4-0.3-0.5-0.6c-0.1-0.3-0.2-0.6-0.3-1.1c-0.1-0.5-0.1-1-0.1-1.6c0-0.6,0-1.2,0.1-1.6c0.1-0.5,0.2-0.9,0.3-1.1
		c0.1-0.3,0.3-0.5,0.5-0.6c0.2-0.1,0.4-0.2,0.7-0.2h44c0.3,0,0.5,0.1,0.7,0.2c0.2,0.1,0.4,0.3,0.5,0.6c0.1,0.3,0.3,0.7,0.3,1.1
		C478.9,462.9,478.9,463.4,478.9,464z"/>
	<path class="st3" d="M530.2,522.4c0,0.3,0,0.5-0.1,0.7c-0.1,0.2-0.3,0.4-0.6,0.5c-0.3,0.1-0.8,0.2-1.4,0.3s-1.4,0.1-2.3,0.1
		c-0.8,0-1.5,0-2.1-0.1s-1-0.2-1.3-0.3c-0.3-0.1-0.6-0.3-0.8-0.6c-0.2-0.3-0.3-0.6-0.5-1l-5.8-14.9c-0.7-1.7-1.4-3.2-2.1-4.7
		c-0.7-1.4-1.6-2.6-2.6-3.7c-1-1-2.2-1.8-3.6-2.4c-1.4-0.6-3-0.9-4.9-0.9h-5.6v26.9c0,0.3-0.1,0.5-0.2,0.7c-0.1,0.2-0.4,0.3-0.7,0.5
		c-0.3,0.1-0.7,0.2-1.3,0.3c-0.5,0.1-1.2,0.1-2,0.1c-0.8,0-1.5,0-2-0.1c-0.5-0.1-1-0.2-1.3-0.3c-0.3-0.1-0.6-0.3-0.7-0.5
		c-0.1-0.2-0.2-0.4-0.2-0.7v-58.5c0-1.3,0.3-2.2,1-2.7c0.7-0.5,1.4-0.8,2.1-0.8h13.4c1.6,0,2.9,0,4,0.1s2,0.2,2.9,0.3
		c2.4,0.4,4.6,1.1,6.5,2c1.9,0.9,3.4,2.1,4.7,3.5c1.3,1.4,2.2,3,2.9,4.8c0.6,1.8,1,3.8,1,6c0,2.1-0.3,4-0.9,5.7
		c-0.6,1.7-1.4,3.2-2.5,4.4c-1.1,1.3-2.4,2.4-3.9,3.3c-1.5,0.9-3.2,1.7-5,2.4c1,0.5,2,1,2.8,1.7c0.8,0.7,1.6,1.5,2.4,2.5
		c0.7,1,1.4,2.1,2.1,3.4c0.7,1.3,1.3,2.7,2,4.3l5.7,13.9c0.5,1.2,0.7,2,0.9,2.5C530.2,521.7,530.2,522.1,530.2,522.4z M517.6,478
		c0-2.5-0.6-4.6-1.7-6.3s-3-2.9-5.6-3.7c-0.8-0.2-1.7-0.4-2.8-0.5c-1-0.1-2.4-0.1-4-0.1h-7.1v21.3h8.2c2.2,0,4.1-0.3,5.7-0.8
		c1.6-0.5,3-1.3,4-2.2c1.1-1,1.9-2.1,2.4-3.4C517.3,480.9,517.6,479.5,517.6,478z"/>
	<path class="st3" d="M590,500.3c0,3.8-0.6,7.3-1.7,10.3c-1.1,3-2.7,5.6-4.8,7.6c-2.1,2.1-4.6,3.7-7.6,4.7c-3,1.1-6.4,1.6-10.2,1.6
		c-3.5,0-6.7-0.5-9.5-1.5c-2.9-1-5.3-2.5-7.4-4.5c-2.1-2-3.6-4.4-4.7-7.4s-1.7-6.4-1.7-10.3v-39.2c0-0.3,0.1-0.5,0.2-0.7
		s0.4-0.3,0.7-0.5c0.3-0.1,0.7-0.2,1.3-0.3c0.5-0.1,1.2-0.1,2.1-0.1c0.8,0,1.4,0,2,0.1c0.6,0.1,1,0.2,1.3,0.3s0.5,0.3,0.7,0.5
		c0.1,0.2,0.2,0.4,0.2,0.7v38.2c0,2.9,0.4,5.5,1.1,7.7c0.7,2.2,1.8,4,3.1,5.4c1.4,1.5,3,2.5,4.9,3.3c1.9,0.7,4,1.1,6.4,1.1
		c2.4,0,4.6-0.4,6.5-1.1c1.9-0.7,3.5-1.8,4.8-3.2c1.3-1.4,2.3-3.2,3-5.3s1.1-4.6,1.1-7.4v-38.6c0-0.3,0.1-0.5,0.2-0.7
		c0.1-0.2,0.4-0.3,0.7-0.5c0.3-0.1,0.8-0.2,1.3-0.3c0.5-0.1,1.2-0.1,2-0.1c0.8,0,1.4,0,2,0.1c0.5,0.1,1,0.2,1.3,0.3
		c0.3,0.1,0.5,0.3,0.7,0.5s0.2,0.4,0.2,0.7V500.3z"/>
	<path class="st3" d="M675.4,522.4c0,0.3-0.1,0.5-0.2,0.7c-0.1,0.2-0.4,0.3-0.7,0.5s-0.8,0.2-1.3,0.3c-0.5,0.1-1.2,0.1-2,0.1
		c-0.8,0-1.4,0-2-0.1c-0.6-0.1-1-0.2-1.3-0.3s-0.5-0.3-0.7-0.5c-0.1-0.2-0.2-0.4-0.2-0.7v-55.1h-0.1l-22.3,55.3
		c-0.1,0.2-0.2,0.4-0.4,0.6c-0.2,0.2-0.4,0.3-0.8,0.4c-0.3,0.1-0.7,0.2-1.2,0.2c-0.5,0-1,0.1-1.7,0.1c-0.7,0-1.3,0-1.8-0.1
		c-0.5-0.1-0.9-0.2-1.2-0.3c-0.3-0.1-0.6-0.3-0.8-0.4c-0.2-0.2-0.3-0.3-0.4-0.5l-21.3-55.3h0v55.1c0,0.3-0.1,0.5-0.2,0.7
		c-0.1,0.2-0.4,0.3-0.7,0.5s-0.8,0.2-1.3,0.3c-0.5,0.1-1.2,0.1-2.1,0.1c-0.8,0-1.5,0-2-0.1c-0.5-0.1-1-0.2-1.3-0.3s-0.5-0.3-0.7-0.5
		c-0.1-0.2-0.2-0.4-0.2-0.7v-58.1c0-1.4,0.4-2.3,1.1-2.9c0.7-0.6,1.5-0.9,2.4-0.9h5.2c1.1,0,2,0.1,2.8,0.3s1.5,0.5,2.1,0.9
		c0.6,0.4,1.1,1,1.5,1.6c0.4,0.7,0.7,1.4,1,2.3l18.1,45.8h0.2l18.8-45.6c0.4-1,0.8-1.8,1.2-2.5c0.4-0.7,0.9-1.2,1.4-1.6
		c0.5-0.4,1.1-0.7,1.7-0.9s1.4-0.3,2.2-0.3h5.4c0.5,0,1,0.1,1.4,0.2s0.8,0.4,1.1,0.7c0.3,0.3,0.6,0.7,0.8,1.2
		c0.2,0.5,0.3,1.1,0.3,1.7V522.4z"/>
	<path class="st3" d="M762.1,520.7c0.3,0.7,0.4,1.3,0.4,1.7c0,0.4-0.1,0.8-0.4,1c-0.3,0.2-0.7,0.4-1.3,0.4c-0.6,0.1-1.4,0.1-2.4,0.1
		s-1.8,0-2.4-0.1c-0.6,0-1.1-0.1-1.4-0.2c-0.3-0.1-0.5-0.3-0.7-0.5s-0.3-0.4-0.4-0.7l-5.4-15.4h-26.3l-5.2,15.2
		c-0.1,0.3-0.2,0.5-0.4,0.8s-0.4,0.4-0.7,0.5c-0.3,0.1-0.8,0.3-1.3,0.3c-0.6,0.1-1.3,0.1-2.2,0.1c-0.9,0-1.7,0-2.3-0.1
		c-0.6-0.1-1-0.2-1.3-0.5c-0.2-0.2-0.4-0.6-0.3-1c0-0.4,0.2-1,0.4-1.7l21.2-58.7c0.1-0.4,0.3-0.7,0.5-0.9c0.2-0.2,0.5-0.4,0.9-0.5
		s0.9-0.2,1.6-0.3c0.6,0,1.4-0.1,2.4-0.1c1,0,1.9,0,2.6,0.1c0.7,0,1.2,0.1,1.7,0.3c0.4,0.1,0.7,0.3,1,0.6s0.4,0.5,0.5,0.9
		L762.1,520.7z M734.9,468.8L734.9,468.8L724,500.3h22L734.9,468.8z"/>
</g>
<g>
	<g class="st1">
		<path class="st2" d="M267.3,589.3c-0.1,0.2-0.2,0.4-0.3,0.6c-0.1,0.2-0.3,0.3-0.6,0.3c-0.2,0.1-0.6,0.1-0.9,0.2
			c-0.4,0-0.8,0.1-1.3,0.1c-0.5,0-1,0-1.4-0.1c-0.4,0-0.7-0.1-0.9-0.2c-0.2-0.1-0.4-0.2-0.6-0.3c-0.1-0.1-0.2-0.3-0.3-0.6l-7.2-25.8
			h-0.1l-6.6,25.8c-0.1,0.2-0.1,0.4-0.3,0.6c-0.1,0.2-0.3,0.3-0.5,0.3c-0.2,0.1-0.5,0.1-0.9,0.2s-0.8,0.1-1.4,0.1
			c-0.6,0-1.1,0-1.5-0.1s-0.7-0.1-1-0.2c-0.2-0.1-0.4-0.2-0.6-0.3c-0.1-0.1-0.2-0.3-0.3-0.6l-9-31.6c-0.1-0.4-0.2-0.7-0.2-1
			c0-0.2,0.1-0.4,0.2-0.5c0.1-0.1,0.4-0.2,0.7-0.2c0.3,0,0.8-0.1,1.3-0.1c0.5,0,1,0,1.3,0c0.3,0,0.6,0.1,0.7,0.1
			c0.2,0.1,0.3,0.2,0.3,0.3c0.1,0.1,0.1,0.3,0.1,0.5l7.7,28.7h0l7.3-28.6c0.1-0.2,0.1-0.4,0.2-0.5c0.1-0.1,0.2-0.2,0.4-0.3
			c0.2-0.1,0.4-0.1,0.8-0.2c0.3,0,0.8-0.1,1.3-0.1c0.5,0,0.9,0,1.2,0.1c0.3,0,0.5,0.1,0.7,0.2c0.2,0.1,0.3,0.2,0.4,0.3
			c0.1,0.1,0.1,0.3,0.2,0.5l7.9,28.6h0.1l7.5-28.6c0.1-0.2,0.1-0.3,0.2-0.5c0.1-0.1,0.2-0.2,0.3-0.3c0.2-0.1,0.4-0.1,0.7-0.2
			c0.3,0,0.7-0.1,1.2-0.1c0.5,0,0.9,0,1.3,0.1s0.5,0.1,0.7,0.3s0.2,0.3,0.2,0.5c0,0.2-0.1,0.5-0.1,1L267.3,589.3z"/>
		<path class="st2" d="M310.8,572.8c0,2.8-0.3,5.3-1,7.5c-0.7,2.2-1.6,4.1-2.9,5.7c-1.3,1.6-2.9,2.8-4.9,3.6c-2,0.8-4.2,1.3-6.8,1.3
			c-2.6,0-4.8-0.4-6.7-1.1c-1.9-0.8-3.4-1.9-4.7-3.3c-1.2-1.5-2.1-3.3-2.7-5.4c-0.6-2.2-0.9-4.7-0.9-7.5c0-2.7,0.3-5.1,1-7.4
			c0.7-2.2,1.6-4.1,2.9-5.6c1.3-1.5,2.9-2.7,4.9-3.6c2-0.8,4.2-1.3,6.8-1.3c2.5,0,4.7,0.4,6.6,1.1c1.9,0.8,3.4,1.9,4.7,3.3
			c1.2,1.5,2.2,3.3,2.8,5.4C310.5,567.5,310.8,570,310.8,572.8z M306,573.1c0-1.9-0.2-3.7-0.5-5.4s-0.9-3.1-1.7-4.3
			c-0.8-1.2-1.9-2.2-3.2-2.9c-1.3-0.7-3-1-5-1c-2,0-3.6,0.4-5,1.1c-1.3,0.7-2.4,1.7-3.3,3c-0.8,1.2-1.4,2.7-1.8,4.3
			c-0.4,1.6-0.5,3.4-0.5,5.2c0,2,0.2,3.9,0.5,5.6s0.9,3.2,1.7,4.4c0.8,1.2,1.9,2.2,3.2,2.9c1.3,0.7,3,1,5,1c2,0,3.7-0.4,5-1.1
			c1.4-0.7,2.4-1.7,3.3-3c0.8-1.3,1.4-2.7,1.8-4.4S306,574.9,306,573.1z"/>
		<path class="st2" d="M355.2,589.6c0,0.1,0,0.3-0.1,0.4s-0.2,0.2-0.4,0.3c-0.2,0.1-0.4,0.1-0.7,0.2c-0.3,0-0.6,0.1-1.1,0.1
			c-0.4,0-0.8,0-1.1-0.1c-0.3,0-0.5-0.1-0.7-0.2c-0.2-0.1-0.3-0.1-0.4-0.3s-0.1-0.2-0.1-0.4v-29.8h-0.1l-12.1,29.9
			c-0.1,0.1-0.1,0.2-0.2,0.3c-0.1,0.1-0.2,0.2-0.4,0.2c-0.2,0.1-0.4,0.1-0.7,0.1c-0.3,0-0.6,0-0.9,0c-0.4,0-0.7,0-1-0.1
			c-0.3,0-0.5-0.1-0.7-0.1c-0.2-0.1-0.3-0.1-0.4-0.2c-0.1-0.1-0.2-0.2-0.2-0.3l-11.5-29.9h0v29.8c0,0.1,0,0.3-0.1,0.4
			s-0.2,0.2-0.4,0.3c-0.2,0.1-0.4,0.1-0.7,0.2s-0.7,0.1-1.1,0.1c-0.4,0-0.8,0-1.1-0.1s-0.5-0.1-0.7-0.2c-0.2-0.1-0.3-0.1-0.4-0.3
			c-0.1-0.1-0.1-0.2-0.1-0.4v-31.5c0-0.7,0.2-1.3,0.6-1.6s0.8-0.5,1.3-0.5h2.8c0.6,0,1.1,0.1,1.5,0.2s0.8,0.3,1.1,0.5
			c0.3,0.2,0.6,0.5,0.8,0.9s0.4,0.8,0.6,1.2l9.8,24.8h0.1l10.2-24.7c0.2-0.5,0.4-1,0.6-1.3s0.5-0.7,0.8-0.9s0.6-0.4,0.9-0.5
			c0.3-0.1,0.7-0.1,1.2-0.1h2.9c0.3,0,0.5,0,0.8,0.1s0.4,0.2,0.6,0.4c0.2,0.2,0.3,0.4,0.4,0.6c0.1,0.3,0.2,0.6,0.2,0.9V589.6z"/>
		<path class="st2" d="M389.9,588.7c0.1,0.4,0.2,0.7,0.2,0.9c0,0.2-0.1,0.4-0.2,0.5c-0.1,0.1-0.4,0.2-0.7,0.2s-0.8,0.1-1.3,0.1
			c-0.5,0-1,0-1.3,0s-0.6-0.1-0.7-0.1c-0.2-0.1-0.3-0.1-0.4-0.3c-0.1-0.1-0.2-0.2-0.2-0.4l-2.9-8.3h-14.2l-2.8,8.2
			c-0.1,0.2-0.1,0.3-0.2,0.4c-0.1,0.1-0.2,0.2-0.4,0.3c-0.2,0.1-0.4,0.1-0.7,0.2c-0.3,0-0.7,0.1-1.2,0.1c-0.5,0-0.9,0-1.3-0.1
			c-0.3,0-0.6-0.1-0.7-0.3c-0.1-0.1-0.2-0.3-0.2-0.5c0-0.2,0.1-0.6,0.2-0.9l11.5-31.8c0.1-0.2,0.2-0.4,0.3-0.5
			c0.1-0.1,0.3-0.2,0.5-0.3c0.2-0.1,0.5-0.1,0.8-0.1c0.3,0,0.8,0,1.3,0c0.6,0,1,0,1.4,0c0.4,0,0.7,0.1,0.9,0.1
			c0.2,0.1,0.4,0.2,0.5,0.3c0.1,0.1,0.2,0.3,0.3,0.5L389.9,588.7z M375.2,560.6L375.2,560.6l-5.9,17.1h11.9L375.2,560.6z"/>
		<path class="st2" d="M421.5,588.4c0,0.4-0.1,0.7-0.2,0.9c-0.1,0.2-0.3,0.4-0.5,0.6c-0.2,0.2-0.4,0.3-0.6,0.3
			c-0.2,0.1-0.5,0.1-0.7,0.1H418c-0.5,0-0.9,0-1.2-0.1s-0.7-0.3-1-0.5s-0.6-0.6-1-1c-0.3-0.4-0.7-1-1-1.7l-10.4-19.5
			c-0.5-1-1.1-2.1-1.7-3.2c-0.6-1.1-1.1-2.2-1.5-3.2h-0.1c0,1.3,0.1,2.6,0.1,3.9s0,2.6,0,3.9v20.7c0,0.1,0,0.2-0.1,0.4
			c-0.1,0.1-0.2,0.2-0.4,0.3c-0.2,0.1-0.4,0.1-0.7,0.2s-0.7,0.1-1.1,0.1s-0.8,0-1.1-0.1c-0.3,0-0.5-0.1-0.7-0.2
			c-0.2-0.1-0.3-0.1-0.4-0.3c-0.1-0.1-0.1-0.2-0.1-0.4V558c0-0.7,0.2-1.2,0.6-1.5s0.8-0.5,1.3-0.5h2.2c0.5,0,1,0,1.3,0.1
			c0.4,0.1,0.7,0.2,1,0.4c0.3,0.2,0.6,0.5,0.8,0.8c0.3,0.4,0.5,0.8,0.8,1.4l8,15c0.5,0.9,1,1.8,1.4,2.7c0.5,0.9,0.9,1.7,1.3,2.6
			c0.4,0.8,0.8,1.7,1.3,2.5c0.4,0.8,0.8,1.6,1.2,2.5h0c0-1.4-0.1-2.8-0.1-4.3c0-1.5,0-3,0-4.4v-18.6c0-0.1,0-0.2,0.1-0.3
			c0.1-0.1,0.2-0.2,0.4-0.3c0.2-0.1,0.4-0.1,0.7-0.2c0.3,0,0.7-0.1,1.1-0.1c0.4,0,0.8,0,1.1,0.1c0.3,0,0.5,0.1,0.7,0.2
			c0.2,0.1,0.3,0.2,0.4,0.3c0.1,0.1,0.1,0.2,0.1,0.3V588.4z"/>
		<path class="st2" d="M471.5,572.8c0,2.8-0.3,5.3-1,7.5c-0.7,2.2-1.6,4.1-2.9,5.7c-1.3,1.6-2.9,2.8-4.9,3.6c-2,0.8-4.2,1.3-6.8,1.3
			c-2.6,0-4.8-0.4-6.7-1.1c-1.9-0.8-3.4-1.9-4.7-3.3c-1.2-1.5-2.1-3.3-2.7-5.4c-0.6-2.2-0.9-4.7-0.9-7.5c0-2.7,0.3-5.1,1-7.4
			c0.7-2.2,1.6-4.1,2.9-5.6c1.3-1.5,2.9-2.7,4.9-3.6c2-0.8,4.2-1.3,6.8-1.3c2.5,0,4.7,0.4,6.6,1.1c1.9,0.8,3.4,1.9,4.7,3.3
			c1.2,1.5,2.2,3.3,2.8,5.4C471.2,567.5,471.5,570,471.5,572.8z M466.7,573.1c0-1.9-0.2-3.7-0.5-5.4s-0.9-3.1-1.7-4.3
			c-0.8-1.2-1.9-2.2-3.2-2.9c-1.3-0.7-3-1-5-1c-2,0-3.6,0.4-5,1.1c-1.3,0.7-2.4,1.7-3.3,3c-0.8,1.2-1.4,2.7-1.8,4.3
			c-0.4,1.6-0.5,3.4-0.5,5.2c0,2,0.2,3.9,0.5,5.6s0.9,3.2,1.7,4.4c0.8,1.2,1.9,2.2,3.2,2.9c1.3,0.7,3,1,5,1c2,0,3.7-0.4,5-1.1
			c1.4-0.7,2.4-1.7,3.3-3c0.8-1.3,1.4-2.7,1.8-4.4S466.7,574.9,466.7,573.1z"/>
		<path class="st2" d="M504.6,588.4c0,0.4-0.1,0.7-0.2,0.9c-0.1,0.2-0.3,0.4-0.5,0.6c-0.2,0.2-0.4,0.3-0.6,0.3s-0.5,0.1-0.7,0.1
			h-1.5c-0.5,0-0.9,0-1.2-0.1s-0.7-0.3-1-0.5s-0.6-0.6-1-1c-0.3-0.4-0.7-1-1-1.7l-10.4-19.5c-0.5-1-1.1-2.1-1.7-3.2
			c-0.6-1.1-1.1-2.2-1.5-3.2h-0.1c0,1.3,0.1,2.6,0.1,3.9s0,2.6,0,3.9v20.7c0,0.1,0,0.2-0.1,0.4c-0.1,0.1-0.2,0.2-0.4,0.3
			c-0.2,0.1-0.4,0.1-0.7,0.2s-0.7,0.1-1.1,0.1s-0.8,0-1.1-0.1c-0.3,0-0.5-0.1-0.7-0.2c-0.2-0.1-0.3-0.1-0.4-0.3
			c-0.1-0.1-0.1-0.2-0.1-0.4V558c0-0.7,0.2-1.2,0.6-1.5s0.8-0.5,1.3-0.5h2.2c0.5,0,1,0,1.3,0.1c0.4,0.1,0.7,0.2,1,0.4
			c0.3,0.2,0.6,0.5,0.8,0.8c0.3,0.4,0.5,0.8,0.8,1.4l8,15c0.5,0.9,1,1.8,1.4,2.7c0.5,0.9,0.9,1.7,1.3,2.6c0.4,0.8,0.8,1.7,1.3,2.5
			c0.4,0.8,0.8,1.6,1.2,2.5h0c0-1.4-0.1-2.8-0.1-4.3c0-1.5,0-3,0-4.4v-18.6c0-0.1,0-0.2,0.1-0.3c0.1-0.1,0.2-0.2,0.4-0.3
			c0.2-0.1,0.4-0.1,0.7-0.2c0.3,0,0.7-0.1,1.1-0.1c0.4,0,0.8,0,1.1,0.1c0.3,0,0.5,0.1,0.7,0.2c0.2,0.1,0.3,0.2,0.4,0.3
			c0.1,0.1,0.1,0.2,0.1,0.3V588.4z"/>
		<path class="st2" d="M544.3,580.7c0,1.6-0.3,3-0.9,4.3c-0.6,1.3-1.4,2.3-2.5,3.2c-1,0.9-2.3,1.5-3.7,2s-2.9,0.7-4.6,0.7
			c-1.1,0-2.2-0.1-3.2-0.3c-1-0.2-1.9-0.4-2.6-0.7c-0.8-0.3-1.4-0.6-1.9-0.9s-0.9-0.6-1.1-0.8c-0.2-0.2-0.4-0.5-0.4-0.8
			c-0.1-0.3-0.1-0.8-0.1-1.3c0-0.4,0-0.7,0.1-1c0-0.3,0.1-0.5,0.2-0.6c0.1-0.2,0.2-0.3,0.3-0.3c0.1-0.1,0.2-0.1,0.4-0.1
			c0.2,0,0.6,0.1,1,0.4s1,0.6,1.7,1s1.6,0.7,2.6,1c1,0.3,2.1,0.5,3.5,0.5c1,0,1.9-0.1,2.7-0.4c0.8-0.3,1.5-0.6,2.1-1.1
			c0.6-0.5,1-1.1,1.4-1.8c0.3-0.7,0.5-1.5,0.5-2.4c0-1-0.2-1.8-0.7-2.5c-0.4-0.7-1-1.3-1.7-1.8c-0.7-0.5-1.5-1-2.5-1.4
			s-1.9-0.9-2.8-1.3s-1.9-0.9-2.8-1.5c-0.9-0.5-1.7-1.2-2.5-1.9c-0.7-0.7-1.3-1.6-1.8-2.6c-0.5-1-0.7-2.2-0.7-3.6
			c0-1.4,0.3-2.7,0.8-3.8c0.5-1.1,1.2-2.1,2.2-2.8c0.9-0.8,2-1.3,3.3-1.7s2.7-0.6,4.1-0.6c0.8,0,1.5,0.1,2.3,0.2s1.5,0.3,2.2,0.5
			c0.7,0.2,1.3,0.5,1.8,0.7c0.5,0.3,0.9,0.5,1,0.7c0.2,0.2,0.3,0.3,0.3,0.4s0.1,0.2,0.1,0.4c0,0.2,0.1,0.3,0.1,0.5s0,0.5,0,0.8
			c0,0.3,0,0.6,0,0.8s-0.1,0.5-0.1,0.6c-0.1,0.2-0.1,0.3-0.2,0.4c-0.1,0.1-0.2,0.1-0.3,0.1c-0.2,0-0.5-0.1-0.9-0.4
			c-0.4-0.2-0.9-0.5-1.5-0.8c-0.6-0.3-1.3-0.6-2.1-0.8s-1.7-0.4-2.8-0.4c-1,0-1.8,0.1-2.5,0.4s-1.3,0.6-1.7,1
			c-0.5,0.4-0.8,0.9-1,1.5c-0.2,0.6-0.3,1.2-0.3,1.9c0,1,0.2,1.8,0.7,2.5c0.4,0.7,1,1.3,1.8,1.8c0.7,0.5,1.6,1,2.5,1.5
			s1.9,0.9,2.9,1.3c1,0.5,1.9,0.9,2.9,1.5s1.8,1.2,2.5,1.9c0.7,0.7,1.3,1.6,1.8,2.6S544.3,579.3,544.3,580.7z"/>
		<path class="st2" d="M571.8,566.1c0,1.7-0.3,3.3-0.8,4.6c-0.6,1.4-1.4,2.5-2.4,3.5s-2.3,1.7-3.9,2.2c-1.5,0.5-3.3,0.8-5.5,0.8
			h-3.9v12.3c0,0.1,0,0.3-0.1,0.4c-0.1,0.1-0.2,0.2-0.4,0.3c-0.2,0.1-0.4,0.1-0.7,0.2c-0.3,0-0.7,0.1-1.1,0.1c-0.4,0-0.8,0-1.1-0.1
			s-0.5-0.1-0.7-0.2c-0.2-0.1-0.3-0.1-0.4-0.3s-0.1-0.2-0.1-0.4V558c0-0.7,0.2-1.2,0.6-1.5s0.8-0.5,1.2-0.5h7.3c0.7,0,1.5,0,2.1,0.1
			c0.7,0.1,1.5,0.2,2.4,0.4c0.9,0.2,1.9,0.6,2.8,1.1c1,0.6,1.8,1.2,2.4,2c0.7,0.8,1.2,1.8,1.5,2.8S571.8,564.8,571.8,566.1z
			 M567,566.4c0-1.4-0.3-2.6-0.8-3.5c-0.5-0.9-1.2-1.6-1.9-2.1c-0.8-0.5-1.6-0.8-2.4-0.9c-0.8-0.1-1.6-0.2-2.4-0.2h-4.2v13.7h4.1
			c1.4,0,2.5-0.2,3.4-0.5c0.9-0.4,1.7-0.8,2.3-1.5c0.6-0.6,1.1-1.4,1.4-2.2C566.9,568.4,567,567.5,567,566.4z"/>
		<path class="st2" d="M597.8,588.4c0,0.3,0,0.6-0.1,0.8c0,0.2-0.1,0.4-0.2,0.6c-0.1,0.2-0.2,0.3-0.3,0.3c-0.1,0.1-0.2,0.1-0.4,0.1
			h-16.4c-0.4,0-0.8-0.1-1.2-0.4c-0.4-0.3-0.5-0.8-0.5-1.4v-30.5c0-0.7,0.2-1.2,0.5-1.4s0.7-0.4,1.2-0.4h16.2c0.1,0,0.3,0,0.4,0.1
			c0.1,0.1,0.2,0.2,0.3,0.3c0.1,0.2,0.1,0.4,0.2,0.6s0.1,0.5,0.1,0.9c0,0.3,0,0.6-0.1,0.8s-0.1,0.4-0.2,0.6
			c-0.1,0.1-0.2,0.3-0.3,0.3c-0.1,0.1-0.2,0.1-0.4,0.1h-13.4v10.7h11.5c0.1,0,0.3,0,0.4,0.1c0.1,0.1,0.2,0.2,0.3,0.3
			c0.1,0.1,0.1,0.3,0.2,0.6c0,0.2,0.1,0.5,0.1,0.9c0,0.3,0,0.6-0.1,0.8c0,0.2-0.1,0.4-0.2,0.6c-0.1,0.1-0.2,0.2-0.3,0.3
			c-0.1,0.1-0.2,0.1-0.4,0.1h-11.5v12.2h13.6c0.1,0,0.3,0,0.4,0.1c0.1,0.1,0.2,0.2,0.3,0.3c0.1,0.1,0.2,0.3,0.2,0.6
			C597.8,587.7,597.8,588,597.8,588.4z"/>
		<path class="st2" d="M627.4,585.4c0,0.3,0,0.5,0,0.7s0,0.4-0.1,0.6c0,0.2-0.1,0.3-0.2,0.4s-0.2,0.3-0.4,0.4
			c-0.2,0.2-0.5,0.4-1.1,0.8s-1.3,0.7-2.1,1.1c-0.8,0.3-1.8,0.6-2.9,0.9c-1.1,0.2-2.3,0.4-3.6,0.4c-2.2,0-4.2-0.4-6-1.1
			c-1.8-0.7-3.3-1.8-4.6-3.3c-1.3-1.4-2.2-3.2-2.9-5.4c-0.7-2.1-1-4.6-1-7.3c0-2.8,0.4-5.4,1.1-7.6c0.7-2.2,1.8-4.1,3.1-5.6
			c1.3-1.5,2.9-2.7,4.7-3.5c1.8-0.8,3.9-1.2,6.1-1.2c1,0,1.9,0.1,2.9,0.3c0.9,0.2,1.8,0.4,2.6,0.7c0.8,0.3,1.5,0.6,2.1,1
			s1,0.7,1.3,0.9s0.4,0.4,0.5,0.5c0.1,0.1,0.1,0.3,0.2,0.4c0,0.2,0.1,0.4,0.1,0.6c0,0.2,0,0.5,0,0.8c0,0.4,0,0.7-0.1,0.9
			c0,0.2-0.1,0.5-0.2,0.6c-0.1,0.2-0.2,0.3-0.3,0.4c-0.1,0.1-0.2,0.1-0.4,0.1c-0.2,0-0.6-0.2-1-0.5s-1-0.7-1.7-1.1
			c-0.7-0.4-1.6-0.8-2.6-1.1c-1-0.3-2.2-0.5-3.6-0.5c-1.5,0-2.9,0.3-4.2,0.9s-2.3,1.5-3.2,2.7c-0.9,1.2-1.6,2.6-2.1,4.3
			s-0.7,3.6-0.7,5.8c0,2.2,0.2,4.1,0.7,5.8c0.5,1.7,1.1,3.1,2,4.2c0.9,1.1,2,2,3.2,2.5c1.3,0.6,2.7,0.9,4.3,0.9
			c1.4,0,2.6-0.2,3.6-0.5c1-0.3,1.9-0.7,2.6-1.1c0.7-0.4,1.3-0.8,1.8-1.1c0.5-0.3,0.8-0.5,1.1-0.5c0.1,0,0.2,0,0.3,0.1
			c0.1,0.1,0.2,0.2,0.2,0.3c0.1,0.2,0.1,0.4,0.1,0.6S627.4,585,627.4,585.4z"/>
		<path class="st2" d="M655.2,558c0,0.3,0,0.6-0.1,0.9c0,0.2-0.1,0.4-0.2,0.6c-0.1,0.2-0.2,0.3-0.3,0.3c-0.1,0.1-0.2,0.1-0.4,0.1
			h-9.6v29.7c0,0.1,0,0.3-0.1,0.4s-0.2,0.2-0.4,0.3c-0.2,0.1-0.4,0.1-0.7,0.2s-0.7,0.1-1.1,0.1c-0.4,0-0.8,0-1.1-0.1
			s-0.5-0.1-0.7-0.2c-0.2-0.1-0.3-0.1-0.4-0.3c-0.1-0.1-0.1-0.2-0.1-0.4v-29.7h-9.6c-0.1,0-0.3,0-0.4-0.1c-0.1-0.1-0.2-0.2-0.3-0.3
			c-0.1-0.1-0.1-0.3-0.2-0.6s-0.1-0.5-0.1-0.9s0-0.6,0.1-0.9c0-0.3,0.1-0.5,0.2-0.6c0.1-0.2,0.2-0.3,0.3-0.3
			c0.1-0.1,0.2-0.1,0.4-0.1h23.8c0.1,0,0.3,0,0.4,0.1c0.1,0.1,0.2,0.2,0.3,0.3c0.1,0.2,0.1,0.4,0.2,0.6
			C655.1,557.4,655.2,557.7,655.2,558z"/>
		<path class="st2" d="M682.9,589.6c0,0.1,0,0.3-0.1,0.4s-0.2,0.2-0.3,0.3c-0.2,0.1-0.4,0.1-0.7,0.2s-0.7,0.1-1.3,0.1
			c-0.5,0-0.8,0-1.1-0.1s-0.5-0.1-0.7-0.2c-0.2-0.1-0.3-0.2-0.4-0.3c-0.1-0.1-0.2-0.3-0.3-0.5l-3.1-8.1c-0.4-0.9-0.8-1.8-1.2-2.5
			c-0.4-0.8-0.9-1.4-1.4-2c-0.5-0.6-1.2-1-1.9-1.3s-1.6-0.5-2.7-0.5h-3v14.6c0,0.1,0,0.3-0.1,0.4c-0.1,0.1-0.2,0.2-0.4,0.3
			c-0.2,0.1-0.4,0.1-0.7,0.2c-0.3,0-0.7,0.1-1.1,0.1c-0.4,0-0.8,0-1.1-0.1s-0.5-0.1-0.7-0.2c-0.2-0.1-0.3-0.1-0.4-0.3
			s-0.1-0.2-0.1-0.4v-31.7c0-0.7,0.2-1.2,0.5-1.4s0.7-0.4,1.2-0.4h7.3c0.9,0,1.6,0,2.2,0.1s1.1,0.1,1.5,0.1c1.3,0.2,2.5,0.6,3.5,1.1
			c1,0.5,1.9,1.1,2.6,1.9s1.2,1.6,1.5,2.6s0.5,2.1,0.5,3.2c0,1.1-0.2,2.2-0.5,3.1c-0.3,0.9-0.8,1.7-1.3,2.4s-1.3,1.3-2.1,1.8
			c-0.8,0.5-1.7,0.9-2.7,1.3c0.6,0.2,1.1,0.6,1.5,0.9c0.5,0.4,0.9,0.8,1.3,1.4c0.4,0.5,0.8,1.1,1.1,1.8s0.7,1.5,1.1,2.3l3.1,7.5
			c0.2,0.6,0.4,1.1,0.5,1.3S682.9,589.4,682.9,589.6z M676.1,565.5c0-1.3-0.3-2.5-0.9-3.4c-0.6-0.9-1.6-1.6-3-2
			c-0.4-0.1-0.9-0.2-1.5-0.3c-0.6-0.1-1.3-0.1-2.2-0.1h-3.8v11.5h4.4c1.2,0,2.2-0.1,3.1-0.4c0.9-0.3,1.6-0.7,2.2-1.2
			c0.6-0.5,1-1.1,1.3-1.8S676.1,566.4,676.1,565.5z"/>
		<path class="st2" d="M715.2,577.6c0,2.1-0.3,3.9-0.9,5.6s-1.5,3-2.6,4.1c-1.1,1.1-2.5,2-4.1,2.6c-1.6,0.6-3.5,0.9-5.5,0.9
			c-1.9,0-3.6-0.3-5.2-0.8c-1.6-0.5-2.9-1.4-4-2.4c-1.1-1.1-2-2.4-2.6-4c-0.6-1.6-0.9-3.5-0.9-5.6v-21.2c0-0.1,0-0.3,0.1-0.4
			c0.1-0.1,0.2-0.2,0.4-0.3c0.2-0.1,0.4-0.1,0.7-0.2c0.3,0,0.7-0.1,1.1-0.1c0.4,0,0.8,0,1.1,0.1s0.5,0.1,0.7,0.2
			c0.2,0.1,0.3,0.1,0.4,0.3c0.1,0.1,0.1,0.2,0.1,0.4v20.7c0,1.6,0.2,3,0.6,4.2c0.4,1.2,0.9,2.2,1.7,2.9s1.6,1.4,2.6,1.8
			s2.2,0.6,3.5,0.6c1.3,0,2.5-0.2,3.5-0.6c1-0.4,1.9-1,2.6-1.7c0.7-0.8,1.3-1.7,1.6-2.9c0.4-1.1,0.6-2.5,0.6-4v-20.9
			c0-0.1,0-0.3,0.1-0.4c0.1-0.1,0.2-0.2,0.4-0.3c0.2-0.1,0.4-0.1,0.7-0.2s0.7-0.1,1.1-0.1c0.4,0,0.8,0,1.1,0.1s0.5,0.1,0.7,0.2
			c0.2,0.1,0.3,0.1,0.4,0.3c0.1,0.1,0.1,0.2,0.1,0.4V577.6z"/>
		<path class="st2" d="M761.5,589.6c0,0.1,0,0.3-0.1,0.4c-0.1,0.1-0.2,0.2-0.4,0.3c-0.2,0.1-0.4,0.1-0.7,0.2s-0.6,0.1-1.1,0.1
			c-0.4,0-0.8,0-1.1-0.1c-0.3,0-0.5-0.1-0.7-0.2c-0.2-0.1-0.3-0.1-0.4-0.3c-0.1-0.1-0.1-0.2-0.1-0.4v-29.8h-0.1l-12.1,29.9
			c-0.1,0.1-0.1,0.2-0.2,0.3c-0.1,0.1-0.2,0.2-0.4,0.2c-0.2,0.1-0.4,0.1-0.7,0.1c-0.3,0-0.6,0-0.9,0c-0.4,0-0.7,0-1-0.1
			c-0.3,0-0.5-0.1-0.7-0.1c-0.2-0.1-0.3-0.1-0.4-0.2c-0.1-0.1-0.2-0.2-0.2-0.3l-11.5-29.9h0v29.8c0,0.1,0,0.3-0.1,0.4
			c-0.1,0.1-0.2,0.2-0.4,0.3c-0.2,0.1-0.4,0.1-0.7,0.2c-0.3,0-0.7,0.1-1.1,0.1c-0.4,0-0.8,0-1.1-0.1c-0.3,0-0.5-0.1-0.7-0.2
			c-0.2-0.1-0.3-0.1-0.4-0.3c-0.1-0.1-0.1-0.2-0.1-0.4v-31.5c0-0.7,0.2-1.3,0.6-1.6s0.8-0.5,1.3-0.5h2.8c0.6,0,1.1,0.1,1.5,0.2
			s0.8,0.3,1.1,0.5c0.3,0.2,0.6,0.5,0.8,0.9s0.4,0.8,0.6,1.2l9.8,24.8h0.1l10.2-24.7c0.2-0.5,0.4-1,0.6-1.3s0.5-0.7,0.8-0.9
			c0.3-0.2,0.6-0.4,0.9-0.5c0.3-0.1,0.7-0.1,1.2-0.1h2.9c0.3,0,0.5,0,0.8,0.1c0.2,0.1,0.4,0.2,0.6,0.4c0.2,0.2,0.3,0.4,0.4,0.6
			c0.1,0.3,0.2,0.6,0.2,0.9V589.6z"/>
	</g>
</g>
<rect x="222" y="445" class="st4" width="555" height="158"/>
<g>
	<g>
		<defs>
			<rect id="SVGID_1_" x="220.5" y="445" width="555" height="158"/>
		</defs>
		<clipPath id="SVGID_2_">
			<use xlink:href="#SVGID_1_"  style="overflow:visible;"/>
		</clipPath>
		<g class="st5">
			<g class="st6">
				<path class="st7" d="M146,531c9.7,0,9.7,14,19.5,14c9.7,0,9.7-14,19.5-14c9.7,0,9.7,14,19.5,14c9.7,0,9.7-14,19.5-14
					s9.7,14,19.5,14s9.7-14,19.5-14c9.7,0,9.7,14,19.5,14s9.7-14,19.5-14s9.7,14,19.5,14s9.7-14,19.5-14s9.7,14,19.5,14
					c9.7,0,9.7-14,19.5-14s9.7,14,19.5,14s9.7-14,19.5-14c9.7,0,9.7,14,19.5,14c9.7,0,9.7-14,19.5-14c9.7,0,9.7,14,19.5,14
					c9.7,0,9.7-14,19.5-14c9.7,0,9.7,14,19.5,14c9.7,0,9.7-14,19.5-14c9.7,0,9.7,14,19.5,14c9.7,0,9.7-14,19.5-14
					c9.7,0,9.7,14,19.5,14c9.7,0,9.7-14,19.5-14s9.7,14,19.5,14s9.7-14,19.5-14c9.7,0,9.7,14,19.5,14c9.7,0,9.7-14,19.5-14
					c9.7,0,9.7,14,19.5,14c9.7,0,9.7-14,19.5-14c9.7,0,9.7,14,19.5,14s9.7-14,19.5-14s9.7,14,19.5,14s9.7-14,19.5-14s9.7,14,19.5,14
					s9.7-14,19.5-14"/>
			</g>
		</g>
	</g>
</g>
<line class="st8" x1="169.5" y1="538" x2="826.5" y2="538"/>
</svg>
