<?xml version="1.0" encoding="utf-8"?>
<!-- Generator: Adobe Illustrator 23.0.3, SVG Export Plug-In . SVG Version: 6.00 Build 0)  -->
<svg version="1.1" id="Layer_1" xmlns="http://www.w3.org/2000/svg" xmlns:xlink="http://www.w3.org/1999/xlink" x="0px" y="0px"
	 viewBox="0 0 1000 1000" style="enable-background:new 0 0 1000 1000;" xml:space="preserve">
<style type="text/css">
	.st0{opacity:0.95;enable-background:new    ;}
	.st1{fill:#F6E1C6;}
	.st2{font-family:'Calibri';}
	.st3{font-size:100.064px;}
	.st4{fill:none;stroke:#F6E1C6;stroke-miterlimit:10;}
	.st5{font-size:54.1555px;}
	.st6{fill:none;stroke:#F6E1C6;stroke-width:4;stroke-linecap:round;stroke-linejoin:round;stroke-miterlimit:10;}
	.st7{clip-path:url(#SVGID_2_);}
	.st8{display:none;}
	.st9{display:inline;fill:none;stroke:#F6E1C6;stroke-width:4;stroke-linecap:round;stroke-miterlimit:10;}
	.st10{fill:none;stroke:#F6E1C6;stroke-width:3;stroke-linecap:round;stroke-miterlimit:10;}
</style>
<rect class="st0" width="1000" height="1000"/>
<text transform="matrix(1 0 0 1 233.7153 523.6445)" class="st1 st2 st3">SPECTRUM A</text>
<text transform="matrix(1 0 0 1 233.7153 523.6445)" class="st4 st2 st3">SPECTRUM A</text>
<g>
	<text transform="matrix(1 0 0 1 231.9997 590.2676)" class="st1 st2 st5">WOMAN ON SPECTRUM</text>
</g>
<rect x="222" y="445" class="st6" width="555" height="158"/>
<g>
	<g>
		<defs>
			<rect id="SVGID_1_" x="222" y="445" width="555" height="158"/>
		</defs>
		<clipPath id="SVGID_2_">
			<use xlink:href="#SVGID_1_"  style="overflow:visible;"/>
		</clipPath>
		<g class="st7">
			<g class="st8">
				<path class="st9" d="M147.5,531c25.03,0,25.03,14,50.07,14c25.03,0,25.03-14,50.07-14c25.03,0,25.03,14,50.07,14
					c25.03,0,25.03-14,50.07-14s25.04,14,50.07,14c25.04,0,25.04-14,50.07-14c25.04,0,25.04,14,50.07,14c25.04,0,25.04-14,50.07-14
					s25.03,14,50.07,14s25.04-14,50.07-14c25.04,0,25.04,14,50.07,14c25.04,0,25.04-14,50.07-14c25.04,0,25.04,14,50.08,14
					s25.04-14,50.08-14"/>
			</g>
			<line class="st10" x1="147" y1="538" x2="804" y2="538"/>
		</g>
	</g>
</g>
</svg>
