<?xml version="1.0" encoding="utf-8"?>
<!-- Generator: Adobe Illustrator 23.0.3, SVG Export Plug-In . SVG Version: 6.00 Build 0)  -->
<svg version="1.1" id="Layer_1" xmlns="http://www.w3.org/2000/svg" xmlns:xlink="http://www.w3.org/1999/xlink" x="0px" y="0px"
	 viewBox="0 0 661.4 133.8" style="enable-background:new 0 0 661.4 133.8;" xml:space="preserve">
<style type="text/css">
	.st0{display:none;opacity:0.95;enable-background:new    ;}
	.st1{enable-background:new    ;}
	.st2{fill:#F6E1C6;}
	.st3{fill:none;stroke:#F6E1C6;stroke-miterlimit:10;}
	.st4{display:none;fill:none;stroke:#F6E1C6;stroke-width:4;stroke-linecap:round;stroke-linejoin:round;stroke-miterlimit:10;}
	.st5{fill:none;stroke:#F6E1C6;stroke-width:3;stroke-linecap:round;stroke-miterlimit:10;}
</style>
<rect x="-167.8" y="-457.3" class="st0" width="1000" height="1000"/>
<g class="st1">
	<path class="st2" d="M105.6,48.6c0,3-0.5,5.6-1.6,7.9s-2.6,4.3-4.5,5.9s-4.2,2.8-6.8,3.6c-2.6,0.8-5.4,1.2-8.5,1.2
		c-2.1,0-4.1-0.2-5.9-0.5c-1.8-0.4-3.4-0.8-4.8-1.3c-1.4-0.5-2.6-1.1-3.6-1.6c-1-0.6-1.6-1-2-1.4c-0.4-0.4-0.7-0.9-0.8-1.5
		c-0.2-0.6-0.3-1.4-0.3-2.4c0-0.7,0-1.3,0.1-1.8c0.1-0.5,0.2-0.9,0.3-1.1c0.1-0.3,0.3-0.5,0.5-0.6c0.2-0.1,0.4-0.2,0.7-0.2
		c0.5,0,1.1,0.3,1.9,0.8c0.8,0.6,1.9,1.2,3.2,1.8c1.3,0.7,2.9,1.3,4.7,1.8c1.8,0.6,4,0.9,6.4,0.9c1.8,0,3.5-0.2,5-0.7
		c1.5-0.5,2.8-1.2,3.9-2.1c1.1-0.9,1.9-2,2.5-3.3s0.9-2.8,0.9-4.4c0-1.8-0.4-3.3-1.2-4.6c-0.8-1.3-1.9-2.4-3.2-3.3
		c-1.3-1-2.9-1.8-4.6-2.6c-1.7-0.8-3.5-1.6-5.3-2.4c-1.8-0.8-3.5-1.8-5.2-2.8c-1.7-1-3.2-2.2-4.5-3.6c-1.3-1.4-2.4-3-3.2-4.8
		c-0.8-1.8-1.2-4-1.2-6.6c0-2.6,0.5-5,1.4-7.1c1-2.1,2.3-3.8,4-5.2c1.7-1.4,3.7-2.5,6.1-3.2c2.4-0.7,4.9-1.1,7.6-1.1
		c1.4,0,2.8,0.1,4.2,0.4s2.8,0.6,4,1C97,4,98.1,4.4,99.1,4.9s1.6,0.9,1.9,1.2s0.5,0.6,0.6,0.7c0.1,0.2,0.2,0.4,0.2,0.7
		c0.1,0.3,0.1,0.6,0.1,1c0,0.4,0,0.9,0,1.5c0,0.6,0,1.1-0.1,1.6c0,0.5-0.1,0.8-0.2,1.1c-0.1,0.3-0.2,0.5-0.4,0.7
		c-0.2,0.1-0.4,0.2-0.6,0.2c-0.4,0-0.9-0.2-1.7-0.7c-0.8-0.5-1.7-1-2.8-1.5c-1.1-0.6-2.4-1.1-3.9-1.6c-1.5-0.5-3.2-0.7-5.1-0.7
		c-1.8,0-3.3,0.2-4.6,0.7c-1.3,0.5-2.4,1.1-3.2,1.9c-0.8,0.8-1.5,1.7-1.9,2.8c-0.4,1.1-0.6,2.2-0.6,3.4c0,1.8,0.4,3.3,1.2,4.5
		c0.8,1.3,1.9,2.4,3.2,3.4c1.4,1,2.9,1.9,4.6,2.7c1.7,0.8,3.5,1.6,5.3,2.5c1.8,0.8,3.5,1.7,5.3,2.7c1.7,1,3.3,2.2,4.6,3.5
		c1.4,1.4,2.4,2.9,3.3,4.8C105.2,43.9,105.6,46.1,105.6,48.6z"/>
	<path class="st2" d="M156.5,21.7c0,3.2-0.5,6-1.6,8.5c-1,2.5-2.5,4.7-4.5,6.5c-1.9,1.8-4.3,3.2-7.1,4.2c-2.8,1-6.2,1.5-10.1,1.5
		h-7.2v22.8c0,0.3-0.1,0.5-0.2,0.7c-0.1,0.2-0.4,0.3-0.7,0.5c-0.3,0.1-0.7,0.2-1.3,0.3c-0.5,0.1-1.2,0.1-2,0.1c-0.8,0-1.5,0-2-0.1
		c-0.5-0.1-1-0.2-1.3-0.3c-0.3-0.1-0.6-0.3-0.7-0.5c-0.1-0.2-0.2-0.4-0.2-0.7V6.8c0-1.3,0.3-2.2,1-2.8c0.7-0.6,1.4-0.8,2.3-0.8h13.5
		c1.4,0,2.7,0.1,3.9,0.2c1.3,0.1,2.7,0.4,4.4,0.7c1.7,0.4,3.5,1.1,5.2,2.1c1.8,1,3.3,2.3,4.5,3.8c1.2,1.5,2.2,3.2,2.9,5.2
		C156.2,17.1,156.5,19.3,156.5,21.7z M147.7,22.3c0-2.6-0.5-4.7-1.4-6.4c-1-1.7-2.1-3-3.6-3.9c-1.4-0.8-2.9-1.4-4.4-1.6
		c-1.5-0.2-3-0.3-4.4-0.3h-7.8v25.4h7.6c2.5,0,4.6-0.3,6.3-1c1.7-0.7,3.1-1.6,4.2-2.7c1.1-1.2,2-2.5,2.6-4.2S147.7,24.2,147.7,22.3z
		"/>
	<path class="st2" d="M204.5,62.9c0,0.6,0,1.1-0.1,1.5c-0.1,0.4-0.2,0.8-0.3,1.1c-0.2,0.3-0.4,0.5-0.6,0.6c-0.2,0.1-0.4,0.2-0.7,0.2
		h-30.3c-0.7,0-1.5-0.3-2.1-0.8c-0.7-0.5-1-1.4-1-2.7V6.6c0-1.3,0.3-2.2,1-2.7c0.7-0.5,1.4-0.8,2.1-0.8h30c0.3,0,0.5,0.1,0.7,0.2
		c0.2,0.1,0.4,0.3,0.5,0.6c0.1,0.3,0.2,0.7,0.3,1.1c0.1,0.4,0.1,1,0.1,1.6c0,0.6,0,1.1-0.1,1.5c-0.1,0.4-0.2,0.8-0.3,1.1
		c-0.1,0.3-0.3,0.5-0.5,0.6c-0.2,0.1-0.4,0.2-0.7,0.2h-24.7V30H199c0.3,0,0.5,0.1,0.7,0.2c0.2,0.1,0.4,0.4,0.5,0.6
		c0.1,0.3,0.3,0.6,0.3,1.1c0.1,0.5,0.1,1,0.1,1.6c0,0.6,0,1.1-0.1,1.5c-0.1,0.4-0.2,0.8-0.3,1c-0.1,0.3-0.3,0.4-0.5,0.6
		c-0.2,0.1-0.4,0.2-0.7,0.2h-21.2v22.6h25.1c0.3,0,0.5,0.1,0.7,0.2c0.2,0.1,0.4,0.3,0.6,0.6c0.2,0.3,0.3,0.6,0.3,1.1
		C204.5,61.7,204.5,62.2,204.5,62.9z"/>
	<path class="st2" d="M259.2,57.4c0,0.5,0,1,0,1.4c0,0.4-0.1,0.7-0.2,1c-0.1,0.3-0.2,0.6-0.3,0.8c-0.1,0.2-0.4,0.5-0.7,0.8
		c-0.3,0.3-1,0.8-2.1,1.5c-1,0.7-2.3,1.3-3.9,2c-1.5,0.6-3.3,1.2-5.3,1.6s-4.2,0.7-6.6,0.7c-4.1,0-7.8-0.7-11.1-2.1
		c-3.3-1.4-6.1-3.4-8.5-6.1c-2.3-2.7-4.1-6-5.4-9.9c-1.3-3.9-1.9-8.4-1.9-13.6c0-5.2,0.7-9.9,2-14c1.4-4.1,3.2-7.6,5.7-10.4
		c2.4-2.8,5.4-5,8.8-6.5c3.4-1.5,7.2-2.2,11.3-2.2c1.8,0,3.6,0.2,5.3,0.5c1.7,0.3,3.3,0.8,4.8,1.3c1.5,0.5,2.8,1.1,3.9,1.8
		c1.1,0.7,1.9,1.2,2.4,1.7c0.4,0.4,0.7,0.8,0.9,1c0.1,0.2,0.2,0.5,0.3,0.8c0.1,0.3,0.1,0.7,0.2,1.1c0,0.4,0.1,0.9,0.1,1.5
		c0,0.7,0,1.2-0.1,1.7c-0.1,0.5-0.2,0.8-0.3,1.1c-0.1,0.3-0.3,0.5-0.5,0.7s-0.4,0.2-0.7,0.2c-0.5,0-1.1-0.3-1.9-1
		c-0.8-0.6-1.9-1.3-3.2-2.1c-1.3-0.8-2.9-1.5-4.7-2.1c-1.9-0.6-4.1-1-6.7-1c-2.8,0-5.4,0.6-7.7,1.7s-4.3,2.8-5.9,5
		c-1.6,2.2-2.9,4.8-3.8,8c-0.9,3.1-1.4,6.7-1.4,10.8c0,4,0.4,7.5,1.3,10.6c0.9,3.1,2.1,5.7,3.7,7.7c1.6,2.1,3.6,3.6,6,4.7
		s5,1.6,8,1.6c2.5,0,4.7-0.3,6.6-0.9c1.9-0.6,3.5-1.3,4.8-2.1s2.4-1.5,3.3-2.1c0.9-0.6,1.5-0.9,2-0.9c0.2,0,0.4,0,0.6,0.1
		c0.2,0.1,0.3,0.3,0.4,0.6c0.1,0.3,0.2,0.7,0.2,1.1S259.2,56.7,259.2,57.4z"/>
	<path class="st2" d="M310.5,6.8c0,0.6,0,1.2-0.1,1.6c-0.1,0.5-0.2,0.8-0.3,1.1c-0.1,0.3-0.3,0.5-0.5,0.6c-0.2,0.1-0.4,0.2-0.7,0.2
		h-17.8v54.8c0,0.3-0.1,0.5-0.2,0.7c-0.1,0.2-0.4,0.3-0.7,0.5c-0.3,0.1-0.8,0.2-1.3,0.3c-0.5,0.1-1.2,0.1-2,0.1c-0.8,0-1.4,0-2-0.1
		c-0.6-0.1-1-0.2-1.3-0.3c-0.3-0.1-0.6-0.3-0.7-0.5c-0.1-0.2-0.2-0.4-0.2-0.7V10.3h-17.8c-0.3,0-0.5-0.1-0.7-0.2
		c-0.2-0.1-0.4-0.3-0.5-0.6c-0.1-0.3-0.2-0.6-0.3-1.1c-0.1-0.5-0.1-1-0.1-1.6c0-0.6,0-1.2,0.1-1.6c0.1-0.5,0.2-0.9,0.3-1.1
		c0.1-0.3,0.3-0.5,0.5-0.6c0.2-0.1,0.4-0.2,0.7-0.2h44c0.3,0,0.5,0.1,0.7,0.2c0.2,0.1,0.4,0.3,0.5,0.6c0.1,0.3,0.3,0.7,0.3,1.1
		C310.5,5.6,310.5,6.1,310.5,6.8z"/>
	<path class="st2" d="M361.8,65.1c0,0.3,0,0.5-0.1,0.7c-0.1,0.2-0.3,0.4-0.6,0.5c-0.3,0.1-0.8,0.2-1.4,0.3s-1.4,0.1-2.3,0.1
		c-0.8,0-1.5,0-2.1-0.1s-1-0.2-1.3-0.3c-0.3-0.1-0.6-0.3-0.8-0.6c-0.2-0.3-0.3-0.6-0.5-1l-5.8-14.9c-0.7-1.7-1.4-3.2-2.1-4.7
		c-0.7-1.4-1.6-2.6-2.6-3.7c-1-1-2.2-1.8-3.6-2.4c-1.4-0.6-3-0.9-4.9-0.9H328v26.9c0,0.3-0.1,0.5-0.2,0.7c-0.1,0.2-0.4,0.3-0.7,0.5
		c-0.3,0.1-0.7,0.2-1.3,0.3c-0.5,0.1-1.2,0.1-2,0.1c-0.8,0-1.5,0-2-0.1c-0.5-0.1-1-0.2-1.3-0.3c-0.3-0.1-0.6-0.3-0.7-0.5
		c-0.1-0.2-0.2-0.4-0.2-0.7V6.6c0-1.3,0.3-2.2,1-2.7c0.7-0.5,1.4-0.8,2.1-0.8h13.4c1.6,0,2.9,0,4,0.1s2,0.2,2.9,0.3
		c2.4,0.4,4.6,1.1,6.5,2c1.9,0.9,3.4,2.1,4.7,3.5c1.3,1.4,2.2,3,2.9,4.8c0.6,1.8,1,3.8,1,6c0,2.1-0.3,4-0.9,5.7
		c-0.6,1.7-1.4,3.2-2.5,4.4c-1.1,1.3-2.4,2.4-3.9,3.3c-1.5,0.9-3.2,1.7-5,2.4c1,0.5,2,1,2.8,1.7c0.8,0.7,1.6,1.5,2.4,2.5
		c0.7,1,1.4,2.1,2.1,3.4c0.7,1.3,1.3,2.7,2,4.3l5.7,13.9c0.5,1.2,0.7,2,0.9,2.5C361.7,64.5,361.8,64.8,361.8,65.1z M349.1,20.7
		c0-2.5-0.6-4.6-1.7-6.3s-3-2.9-5.6-3.7c-0.8-0.2-1.7-0.4-2.8-0.5c-1-0.1-2.4-0.1-4-0.1H328v21.3h8.2c2.2,0,4.1-0.3,5.7-0.8
		c1.6-0.5,3-1.3,4-2.2c1.1-1,1.9-2.1,2.4-3.4C348.9,23.6,349.1,22.2,349.1,20.7z"/>
	<path class="st2" d="M421.5,43c0,3.8-0.6,7.3-1.7,10.3c-1.1,3-2.7,5.6-4.8,7.6c-2.1,2.1-4.6,3.7-7.6,4.7c-3,1.1-6.4,1.6-10.2,1.6
		c-3.5,0-6.7-0.5-9.5-1.5c-2.9-1-5.3-2.5-7.4-4.5c-2.1-2-3.6-4.4-4.7-7.4s-1.7-6.4-1.7-10.3V4.4c0-0.3,0.1-0.5,0.2-0.7
		s0.4-0.3,0.7-0.5c0.3-0.1,0.7-0.2,1.3-0.3c0.5-0.1,1.2-0.1,2.1-0.1c0.8,0,1.4,0,2,0.1c0.6,0.1,1,0.2,1.3,0.3s0.5,0.3,0.7,0.5
		c0.1,0.2,0.2,0.4,0.2,0.7v38.2c0,2.9,0.4,5.5,1.1,7.7c0.7,2.2,1.8,4,3.1,5.4c1.4,1.5,3,2.5,4.9,3.3c1.9,0.7,4,1.1,6.4,1.1
		c2.4,0,4.6-0.4,6.5-1.1c1.9-0.7,3.5-1.8,4.8-3.2c1.3-1.4,2.3-3.2,3-5.3s1.1-4.6,1.1-7.4V4.4c0-0.3,0.1-0.5,0.2-0.7
		c0.1-0.2,0.4-0.3,0.7-0.5c0.3-0.1,0.8-0.2,1.3-0.3c0.5-0.1,1.2-0.1,2-0.1c0.8,0,1.4,0,2,0.1c0.5,0.1,1,0.2,1.3,0.3
		c0.3,0.1,0.5,0.3,0.7,0.5s0.2,0.4,0.2,0.7V43z"/>
	<path class="st2" d="M506.9,65.1c0,0.3-0.1,0.5-0.2,0.7c-0.1,0.2-0.4,0.3-0.7,0.5s-0.8,0.2-1.3,0.3c-0.5,0.1-1.2,0.1-2,0.1
		c-0.8,0-1.4,0-2-0.1c-0.6-0.1-1-0.2-1.3-0.3s-0.5-0.3-0.7-0.5c-0.1-0.2-0.2-0.4-0.2-0.7V10h-0.1l-22.3,55.3
		c-0.1,0.2-0.2,0.4-0.4,0.6c-0.2,0.2-0.4,0.3-0.8,0.4c-0.3,0.1-0.7,0.2-1.2,0.2c-0.5,0-1,0.1-1.7,0.1c-0.7,0-1.3,0-1.8-0.1
		c-0.5-0.1-0.9-0.2-1.2-0.3c-0.3-0.1-0.6-0.3-0.8-0.4c-0.2-0.2-0.3-0.3-0.4-0.5L446.6,10h0v55.1c0,0.3-0.1,0.5-0.2,0.7
		c-0.1,0.2-0.4,0.3-0.7,0.5s-0.8,0.2-1.3,0.3c-0.5,0.1-1.2,0.1-2.1,0.1c-0.8,0-1.5,0-2-0.1c-0.5-0.1-1-0.2-1.3-0.3s-0.5-0.3-0.7-0.5
		c-0.1-0.2-0.2-0.4-0.2-0.7V7c0-1.4,0.4-2.3,1.1-2.9c0.7-0.6,1.5-0.9,2.4-0.9h5.2c1.1,0,2,0.1,2.8,0.3s1.5,0.5,2.1,0.9
		c0.6,0.4,1.1,1,1.5,1.6c0.4,0.7,0.7,1.4,1,2.3l18.1,45.8h0.2l18.8-45.6c0.4-1,0.8-1.8,1.2-2.5c0.4-0.7,0.9-1.2,1.4-1.6
		c0.5-0.4,1.1-0.7,1.7-0.9s1.4-0.3,2.2-0.3h5.4c0.5,0,1,0.1,1.4,0.2s0.8,0.4,1.1,0.7c0.3,0.3,0.6,0.7,0.8,1.2
		c0.2,0.5,0.3,1.1,0.3,1.7V65.1z"/>
	<path class="st2" d="M593.7,63.4c0.3,0.7,0.4,1.3,0.4,1.7c0,0.4-0.1,0.8-0.4,1c-0.3,0.2-0.7,0.4-1.3,0.4c-0.6,0.1-1.4,0.1-2.4,0.1
		s-1.8,0-2.4-0.1c-0.6,0-1.1-0.1-1.4-0.2c-0.3-0.1-0.5-0.3-0.7-0.5s-0.3-0.4-0.4-0.7l-5.4-15.4h-26.3L548.3,65
		c-0.1,0.3-0.2,0.5-0.4,0.8s-0.4,0.4-0.7,0.5c-0.3,0.1-0.8,0.3-1.3,0.3c-0.6,0.1-1.3,0.1-2.2,0.1c-0.9,0-1.7,0-2.3-0.1
		c-0.6-0.1-1-0.2-1.3-0.5c-0.2-0.2-0.4-0.6-0.3-1c0-0.4,0.2-1,0.4-1.7l21.2-58.7c0.1-0.4,0.3-0.7,0.5-0.9c0.2-0.2,0.5-0.4,0.9-0.5
		s0.9-0.2,1.6-0.3c0.6,0,1.4-0.1,2.4-0.1c1,0,1.9,0,2.6,0.1c0.7,0,1.2,0.1,1.7,0.3c0.4,0.1,0.7,0.3,1,0.6s0.4,0.5,0.5,0.9
		L593.7,63.4z M566.5,11.5L566.5,11.5l-10.9,31.5h22L566.5,11.5z"/>
</g>
<g class="st1">
	<path class="st3" d="M105.6,48.6c0,3-0.5,5.6-1.6,7.9s-2.6,4.3-4.5,5.9s-4.2,2.8-6.8,3.6c-2.6,0.8-5.4,1.2-8.5,1.2
		c-2.1,0-4.1-0.2-5.9-0.5c-1.8-0.4-3.4-0.8-4.8-1.3c-1.4-0.5-2.6-1.1-3.6-1.6c-1-0.6-1.6-1-2-1.4c-0.4-0.4-0.7-0.9-0.8-1.5
		c-0.2-0.6-0.3-1.4-0.3-2.4c0-0.7,0-1.3,0.1-1.8c0.1-0.5,0.2-0.9,0.3-1.1c0.1-0.3,0.3-0.5,0.5-0.6c0.2-0.1,0.4-0.2,0.7-0.2
		c0.5,0,1.1,0.3,1.9,0.8c0.8,0.6,1.9,1.2,3.2,1.8c1.3,0.7,2.9,1.3,4.7,1.8c1.8,0.6,4,0.9,6.4,0.9c1.8,0,3.5-0.2,5-0.7
		c1.5-0.5,2.8-1.2,3.9-2.1c1.1-0.9,1.9-2,2.5-3.3s0.9-2.8,0.9-4.4c0-1.8-0.4-3.3-1.2-4.6c-0.8-1.3-1.9-2.4-3.2-3.3
		c-1.3-1-2.9-1.8-4.6-2.6c-1.7-0.8-3.5-1.6-5.3-2.4c-1.8-0.8-3.5-1.8-5.2-2.8c-1.7-1-3.2-2.2-4.5-3.6c-1.3-1.4-2.4-3-3.2-4.8
		c-0.8-1.8-1.2-4-1.2-6.6c0-2.6,0.5-5,1.4-7.1c1-2.1,2.3-3.8,4-5.2c1.7-1.4,3.7-2.5,6.1-3.2c2.4-0.7,4.9-1.1,7.6-1.1
		c1.4,0,2.8,0.1,4.2,0.4s2.8,0.6,4,1C97,4,98.1,4.4,99.1,4.9s1.6,0.9,1.9,1.2s0.5,0.6,0.6,0.7c0.1,0.2,0.2,0.4,0.2,0.7
		c0.1,0.3,0.1,0.6,0.1,1c0,0.4,0,0.9,0,1.5c0,0.6,0,1.1-0.1,1.6c0,0.5-0.1,0.8-0.2,1.1c-0.1,0.3-0.2,0.5-0.4,0.7
		c-0.2,0.1-0.4,0.2-0.6,0.2c-0.4,0-0.9-0.2-1.7-0.7c-0.8-0.5-1.7-1-2.8-1.5c-1.1-0.6-2.4-1.1-3.9-1.6c-1.5-0.5-3.2-0.7-5.1-0.7
		c-1.8,0-3.3,0.2-4.6,0.7c-1.3,0.5-2.4,1.1-3.2,1.9c-0.8,0.8-1.5,1.7-1.9,2.8c-0.4,1.1-0.6,2.2-0.6,3.4c0,1.8,0.4,3.3,1.2,4.5
		c0.8,1.3,1.9,2.4,3.2,3.4c1.4,1,2.9,1.9,4.6,2.7c1.7,0.8,3.5,1.6,5.3,2.5c1.8,0.8,3.5,1.7,5.3,2.7c1.7,1,3.3,2.2,4.6,3.5
		c1.4,1.4,2.4,2.9,3.3,4.8C105.2,43.9,105.6,46.1,105.6,48.6z"/>
	<path class="st3" d="M156.5,21.7c0,3.2-0.5,6-1.6,8.5c-1,2.5-2.5,4.7-4.5,6.5c-1.9,1.8-4.3,3.2-7.1,4.2c-2.8,1-6.2,1.5-10.1,1.5
		h-7.2v22.8c0,0.3-0.1,0.5-0.2,0.7c-0.1,0.2-0.4,0.3-0.7,0.5c-0.3,0.1-0.7,0.2-1.3,0.3c-0.5,0.1-1.2,0.1-2,0.1c-0.8,0-1.5,0-2-0.1
		c-0.5-0.1-1-0.2-1.3-0.3c-0.3-0.1-0.6-0.3-0.7-0.5c-0.1-0.2-0.2-0.4-0.2-0.7V6.8c0-1.3,0.3-2.2,1-2.8c0.7-0.6,1.4-0.8,2.3-0.8h13.5
		c1.4,0,2.7,0.1,3.9,0.2c1.3,0.1,2.7,0.4,4.4,0.7c1.7,0.4,3.5,1.1,5.2,2.1c1.8,1,3.3,2.3,4.5,3.8c1.2,1.5,2.2,3.2,2.9,5.2
		C156.2,17.1,156.5,19.3,156.5,21.7z M147.7,22.3c0-2.6-0.5-4.7-1.4-6.4c-1-1.7-2.1-3-3.6-3.9c-1.4-0.8-2.9-1.4-4.4-1.6
		c-1.5-0.2-3-0.3-4.4-0.3h-7.8v25.4h7.6c2.5,0,4.6-0.3,6.3-1c1.7-0.7,3.1-1.6,4.2-2.7c1.1-1.2,2-2.5,2.6-4.2S147.7,24.2,147.7,22.3z
		"/>
	<path class="st3" d="M204.5,62.9c0,0.6,0,1.1-0.1,1.5c-0.1,0.4-0.2,0.8-0.3,1.1c-0.2,0.3-0.4,0.5-0.6,0.6c-0.2,0.1-0.4,0.2-0.7,0.2
		h-30.3c-0.7,0-1.5-0.3-2.1-0.8c-0.7-0.5-1-1.4-1-2.7V6.6c0-1.3,0.3-2.2,1-2.7c0.7-0.5,1.4-0.8,2.1-0.8h30c0.3,0,0.5,0.1,0.7,0.2
		c0.2,0.1,0.4,0.3,0.5,0.6c0.1,0.3,0.2,0.7,0.3,1.1c0.1,0.4,0.1,1,0.1,1.6c0,0.6,0,1.1-0.1,1.5c-0.1,0.4-0.2,0.8-0.3,1.1
		c-0.1,0.3-0.3,0.5-0.5,0.6c-0.2,0.1-0.4,0.2-0.7,0.2h-24.7V30H199c0.3,0,0.5,0.1,0.7,0.2c0.2,0.1,0.4,0.4,0.5,0.6
		c0.1,0.3,0.3,0.6,0.3,1.1c0.1,0.5,0.1,1,0.1,1.6c0,0.6,0,1.1-0.1,1.5c-0.1,0.4-0.2,0.8-0.3,1c-0.1,0.3-0.3,0.4-0.5,0.6
		c-0.2,0.1-0.4,0.2-0.7,0.2h-21.2v22.6h25.1c0.3,0,0.5,0.1,0.7,0.2c0.2,0.1,0.4,0.3,0.6,0.6c0.2,0.3,0.3,0.6,0.3,1.1
		C204.5,61.7,204.5,62.2,204.5,62.9z"/>
	<path class="st3" d="M259.2,57.4c0,0.5,0,1,0,1.4c0,0.4-0.1,0.7-0.2,1c-0.1,0.3-0.2,0.6-0.3,0.8c-0.1,0.2-0.4,0.5-0.7,0.8
		c-0.3,0.3-1,0.8-2.1,1.5c-1,0.7-2.3,1.3-3.9,2c-1.5,0.6-3.3,1.2-5.3,1.6s-4.2,0.7-6.6,0.7c-4.1,0-7.8-0.7-11.1-2.1
		c-3.3-1.4-6.1-3.4-8.5-6.1c-2.3-2.7-4.1-6-5.4-9.9c-1.3-3.9-1.9-8.4-1.9-13.6c0-5.2,0.7-9.9,2-14c1.4-4.1,3.2-7.6,5.7-10.4
		c2.4-2.8,5.4-5,8.8-6.5c3.4-1.5,7.2-2.2,11.3-2.2c1.8,0,3.6,0.2,5.3,0.5c1.7,0.3,3.3,0.8,4.8,1.3c1.5,0.5,2.8,1.1,3.9,1.8
		c1.1,0.7,1.9,1.2,2.4,1.7c0.4,0.4,0.7,0.8,0.9,1c0.1,0.2,0.2,0.5,0.3,0.8c0.1,0.3,0.1,0.7,0.2,1.1c0,0.4,0.1,0.9,0.1,1.5
		c0,0.7,0,1.2-0.1,1.7c-0.1,0.5-0.2,0.8-0.3,1.1c-0.1,0.3-0.3,0.5-0.5,0.7s-0.4,0.2-0.7,0.2c-0.5,0-1.1-0.3-1.9-1
		c-0.8-0.6-1.9-1.3-3.2-2.1c-1.3-0.8-2.9-1.5-4.7-2.1c-1.9-0.6-4.1-1-6.7-1c-2.8,0-5.4,0.6-7.7,1.7s-4.3,2.8-5.9,5
		c-1.6,2.2-2.9,4.8-3.8,8c-0.9,3.1-1.4,6.7-1.4,10.8c0,4,0.4,7.5,1.3,10.6c0.9,3.1,2.1,5.7,3.7,7.7c1.6,2.1,3.6,3.6,6,4.7
		s5,1.6,8,1.6c2.5,0,4.7-0.3,6.6-0.9c1.9-0.6,3.5-1.3,4.8-2.1s2.4-1.5,3.3-2.1c0.9-0.6,1.5-0.9,2-0.9c0.2,0,0.4,0,0.6,0.1
		c0.2,0.1,0.3,0.3,0.4,0.6c0.1,0.3,0.2,0.7,0.2,1.1S259.2,56.7,259.2,57.4z"/>
	<path class="st3" d="M310.5,6.8c0,0.6,0,1.2-0.1,1.6c-0.1,0.5-0.2,0.8-0.3,1.1c-0.1,0.3-0.3,0.5-0.5,0.6c-0.2,0.1-0.4,0.2-0.7,0.2
		h-17.8v54.8c0,0.3-0.1,0.5-0.2,0.7c-0.1,0.2-0.4,0.3-0.7,0.5c-0.3,0.1-0.8,0.2-1.3,0.3c-0.5,0.1-1.2,0.1-2,0.1c-0.8,0-1.4,0-2-0.1
		c-0.6-0.1-1-0.2-1.3-0.3c-0.3-0.1-0.6-0.3-0.7-0.5c-0.1-0.2-0.2-0.4-0.2-0.7V10.3h-17.8c-0.3,0-0.5-0.1-0.7-0.2
		c-0.2-0.1-0.4-0.3-0.5-0.6c-0.1-0.3-0.2-0.6-0.3-1.1c-0.1-0.5-0.1-1-0.1-1.6c0-0.6,0-1.2,0.1-1.6c0.1-0.5,0.2-0.9,0.3-1.1
		c0.1-0.3,0.3-0.5,0.5-0.6c0.2-0.1,0.4-0.2,0.7-0.2h44c0.3,0,0.5,0.1,0.7,0.2c0.2,0.1,0.4,0.3,0.5,0.6c0.1,0.3,0.3,0.7,0.3,1.1
		C310.5,5.6,310.5,6.1,310.5,6.8z"/>
	<path class="st3" d="M361.8,65.1c0,0.3,0,0.5-0.1,0.7c-0.1,0.2-0.3,0.4-0.6,0.5c-0.3,0.1-0.8,0.2-1.4,0.3s-1.4,0.1-2.3,0.1
		c-0.8,0-1.5,0-2.1-0.1s-1-0.2-1.3-0.3c-0.3-0.1-0.6-0.3-0.8-0.6c-0.2-0.3-0.3-0.6-0.5-1l-5.8-14.9c-0.7-1.7-1.4-3.2-2.1-4.7
		c-0.7-1.4-1.6-2.6-2.6-3.7c-1-1-2.2-1.8-3.6-2.4c-1.4-0.6-3-0.9-4.9-0.9H328v26.9c0,0.3-0.1,0.5-0.2,0.7c-0.1,0.2-0.4,0.3-0.7,0.5
		c-0.3,0.1-0.7,0.2-1.3,0.3c-0.5,0.1-1.2,0.1-2,0.1c-0.8,0-1.5,0-2-0.1c-0.5-0.1-1-0.2-1.3-0.3c-0.3-0.1-0.6-0.3-0.7-0.5
		c-0.1-0.2-0.2-0.4-0.2-0.7V6.6c0-1.3,0.3-2.2,1-2.7c0.7-0.5,1.4-0.8,2.1-0.8h13.4c1.6,0,2.9,0,4,0.1s2,0.2,2.9,0.3
		c2.4,0.4,4.6,1.1,6.5,2c1.9,0.9,3.4,2.1,4.7,3.5c1.3,1.4,2.2,3,2.9,4.8c0.6,1.8,1,3.8,1,6c0,2.1-0.3,4-0.9,5.7
		c-0.6,1.7-1.4,3.2-2.5,4.4c-1.1,1.3-2.4,2.4-3.9,3.3c-1.5,0.9-3.2,1.7-5,2.4c1,0.5,2,1,2.8,1.7c0.8,0.7,1.6,1.5,2.4,2.5
		c0.7,1,1.4,2.1,2.1,3.4c0.7,1.3,1.3,2.7,2,4.3l5.7,13.9c0.5,1.2,0.7,2,0.9,2.5C361.7,64.5,361.8,64.8,361.8,65.1z M349.1,20.7
		c0-2.5-0.6-4.6-1.7-6.3s-3-2.9-5.6-3.7c-0.8-0.2-1.7-0.4-2.8-0.5c-1-0.1-2.4-0.1-4-0.1H328v21.3h8.2c2.2,0,4.1-0.3,5.7-0.8
		c1.6-0.5,3-1.3,4-2.2c1.1-1,1.9-2.1,2.4-3.4C348.9,23.6,349.1,22.2,349.1,20.7z"/>
	<path class="st3" d="M421.5,43c0,3.8-0.6,7.3-1.7,10.3c-1.1,3-2.7,5.6-4.8,7.6c-2.1,2.1-4.6,3.7-7.6,4.7c-3,1.1-6.4,1.6-10.2,1.6
		c-3.5,0-6.7-0.5-9.5-1.5c-2.9-1-5.3-2.5-7.4-4.5c-2.1-2-3.6-4.4-4.7-7.4s-1.7-6.4-1.7-10.3V4.4c0-0.3,0.1-0.5,0.2-0.7
		s0.4-0.3,0.7-0.5c0.3-0.1,0.7-0.2,1.3-0.3c0.5-0.1,1.2-0.1,2.1-0.1c0.8,0,1.4,0,2,0.1c0.6,0.1,1,0.2,1.3,0.3s0.5,0.3,0.7,0.5
		c0.1,0.2,0.2,0.4,0.2,0.7v38.2c0,2.9,0.4,5.5,1.1,7.7c0.7,2.2,1.8,4,3.1,5.4c1.4,1.5,3,2.5,4.9,3.3c1.9,0.7,4,1.1,6.4,1.1
		c2.4,0,4.6-0.4,6.5-1.1c1.9-0.7,3.5-1.8,4.8-3.2c1.3-1.4,2.3-3.2,3-5.3s1.1-4.6,1.1-7.4V4.4c0-0.3,0.1-0.5,0.2-0.7
		c0.1-0.2,0.4-0.3,0.7-0.5c0.3-0.1,0.8-0.2,1.3-0.3c0.5-0.1,1.2-0.1,2-0.1c0.8,0,1.4,0,2,0.1c0.5,0.1,1,0.2,1.3,0.3
		c0.3,0.1,0.5,0.3,0.7,0.5s0.2,0.4,0.2,0.7V43z"/>
	<path class="st3" d="M506.9,65.1c0,0.3-0.1,0.5-0.2,0.7c-0.1,0.2-0.4,0.3-0.7,0.5s-0.8,0.2-1.3,0.3c-0.5,0.1-1.2,0.1-2,0.1
		c-0.8,0-1.4,0-2-0.1c-0.6-0.1-1-0.2-1.3-0.3s-0.5-0.3-0.7-0.5c-0.1-0.2-0.2-0.4-0.2-0.7V10h-0.1l-22.3,55.3
		c-0.1,0.2-0.2,0.4-0.4,0.6c-0.2,0.2-0.4,0.3-0.8,0.4c-0.3,0.1-0.7,0.2-1.2,0.2c-0.5,0-1,0.1-1.7,0.1c-0.7,0-1.3,0-1.8-0.1
		c-0.5-0.1-0.9-0.2-1.2-0.3c-0.3-0.1-0.6-0.3-0.8-0.4c-0.2-0.2-0.3-0.3-0.4-0.5L446.6,10h0v55.1c0,0.3-0.1,0.5-0.2,0.7
		c-0.1,0.2-0.4,0.3-0.7,0.5s-0.8,0.2-1.3,0.3c-0.5,0.1-1.2,0.1-2.1,0.1c-0.8,0-1.5,0-2-0.1c-0.5-0.1-1-0.2-1.3-0.3s-0.5-0.3-0.7-0.5
		c-0.1-0.2-0.2-0.4-0.2-0.7V7c0-1.4,0.4-2.3,1.1-2.9c0.7-0.6,1.5-0.9,2.4-0.9h5.2c1.1,0,2,0.1,2.8,0.3s1.5,0.5,2.1,0.9
		c0.6,0.4,1.1,1,1.5,1.6c0.4,0.7,0.7,1.4,1,2.3l18.1,45.8h0.2l18.8-45.6c0.4-1,0.8-1.8,1.2-2.5c0.4-0.7,0.9-1.2,1.4-1.6
		c0.5-0.4,1.1-0.7,1.7-0.9s1.4-0.3,2.2-0.3h5.4c0.5,0,1,0.1,1.4,0.2s0.8,0.4,1.1,0.7c0.3,0.3,0.6,0.7,0.8,1.2
		c0.2,0.5,0.3,1.1,0.3,1.7V65.1z"/>
	<path class="st3" d="M593.7,63.4c0.3,0.7,0.4,1.3,0.4,1.7c0,0.4-0.1,0.8-0.4,1c-0.3,0.2-0.7,0.4-1.3,0.4c-0.6,0.1-1.4,0.1-2.4,0.1
		s-1.8,0-2.4-0.1c-0.6,0-1.1-0.1-1.4-0.2c-0.3-0.1-0.5-0.3-0.7-0.5s-0.3-0.4-0.4-0.7l-5.4-15.4h-26.3L548.3,65
		c-0.1,0.3-0.2,0.5-0.4,0.8s-0.4,0.4-0.7,0.5c-0.3,0.1-0.8,0.3-1.3,0.3c-0.6,0.1-1.3,0.1-2.2,0.1c-0.9,0-1.7,0-2.3-0.1
		c-0.6-0.1-1-0.2-1.3-0.5c-0.2-0.2-0.4-0.6-0.3-1c0-0.4,0.2-1,0.4-1.7l21.2-58.7c0.1-0.4,0.3-0.7,0.5-0.9c0.2-0.2,0.5-0.4,0.9-0.5
		s0.9-0.2,1.6-0.3c0.6,0,1.4-0.1,2.4-0.1c1,0,1.9,0,2.6,0.1c0.7,0,1.2,0.1,1.7,0.3c0.4,0.1,0.7,0.3,1,0.6s0.4,0.5,0.5,0.9
		L593.7,63.4z M566.5,11.5L566.5,11.5l-10.9,31.5h22L566.5,11.5z"/>
</g>
<rect x="54.2" y="-12.3" class="st4" width="555" height="158"/>
<line class="st5" x1="1.9" y1="80.7" x2="658.9" y2="80.7"/>
<g>
	<path class="st2" d="M97.3,128.4c-0.1,0.3-0.2,0.5-0.3,0.6c-0.1,0.2-0.3,0.3-0.6,0.3c-0.3,0.1-0.6,0.1-0.9,0.2
		c-0.4,0-0.8,0.1-1.4,0.1c-0.6,0-1,0-1.4-0.1c-0.4,0-0.7-0.1-1-0.2c-0.3-0.1-0.4-0.2-0.6-0.3c-0.1-0.2-0.2-0.4-0.3-0.6l-7.3-26.2
		h-0.1l-6.7,26.2c-0.1,0.3-0.1,0.5-0.3,0.6c-0.1,0.2-0.3,0.3-0.5,0.3c-0.2,0.1-0.5,0.1-0.9,0.2c-0.4,0-0.8,0.1-1.4,0.1
		c-0.6,0-1.1,0-1.5-0.1c-0.4,0-0.7-0.1-1-0.2c-0.3-0.1-0.4-0.2-0.6-0.3c-0.1-0.2-0.2-0.4-0.3-0.6l-9.2-32.1c-0.1-0.4-0.2-0.7-0.2-1
		c0-0.2,0.1-0.4,0.2-0.5c0.2-0.1,0.4-0.2,0.7-0.2c0.3,0,0.8-0.1,1.4-0.1c0.6,0,1,0,1.3,0c0.3,0,0.6,0.1,0.7,0.1
		c0.2,0.1,0.3,0.2,0.3,0.3c0.1,0.1,0.1,0.3,0.1,0.5l7.8,29.1h0l7.4-29.1c0.1-0.2,0.1-0.4,0.2-0.5c0.1-0.1,0.2-0.2,0.4-0.3
		c0.2-0.1,0.4-0.1,0.8-0.2c0.3,0,0.8-0.1,1.3-0.1c0.5,0,0.9,0,1.2,0.1c0.3,0,0.5,0.1,0.7,0.2c0.2,0.1,0.3,0.2,0.4,0.3
		c0.1,0.1,0.1,0.3,0.2,0.5l8,29.1h0.1l7.7-29.1c0.1-0.2,0.1-0.3,0.2-0.5c0.1-0.1,0.2-0.2,0.3-0.3c0.2-0.1,0.4-0.1,0.7-0.2
		c0.3,0,0.7-0.1,1.2-0.1c0.5,0,1,0,1.3,0.1c0.3,0,0.5,0.1,0.7,0.3c0.1,0.1,0.2,0.3,0.2,0.5c0,0.2-0.1,0.6-0.1,1L97.3,128.4z"/>
	<path class="st2" d="M141.5,111.6c0,2.8-0.3,5.3-1,7.6c-0.7,2.3-1.7,4.2-3,5.8c-1.3,1.6-3,2.8-5,3.7c-2,0.9-4.3,1.3-7,1.3
		c-2.6,0-4.9-0.4-6.8-1.2c-1.9-0.8-3.5-1.9-4.7-3.4c-1.2-1.5-2.2-3.3-2.8-5.5c-0.6-2.2-0.9-4.7-0.9-7.6c0-2.7,0.3-5.2,1-7.5
		c0.7-2.2,1.7-4.1,3-5.7c1.3-1.6,3-2.8,5-3.6s4.3-1.3,7-1.3c2.6,0,4.8,0.4,6.7,1.2c1.9,0.8,3.5,1.9,4.7,3.4c1.3,1.5,2.2,3.3,2.8,5.5
		C141.2,106.3,141.5,108.8,141.5,111.6z M136.6,112c0-2-0.2-3.8-0.5-5.5c-0.3-1.7-0.9-3.2-1.7-4.4c-0.8-1.2-1.9-2.2-3.3-2.9
		c-1.4-0.7-3-1-5-1c-2,0-3.7,0.4-5,1.1s-2.5,1.8-3.3,3c-0.8,1.3-1.5,2.7-1.8,4.4c-0.4,1.7-0.5,3.4-0.5,5.3c0,2,0.2,3.9,0.5,5.6
		s0.9,3.2,1.7,4.4c0.8,1.2,1.9,2.2,3.2,2.9c1.3,0.7,3,1,5.1,1c2,0,3.7-0.4,5.1-1.1c1.4-0.8,2.5-1.8,3.3-3c0.8-1.3,1.4-2.8,1.8-4.4
		C136.4,115.6,136.6,113.8,136.6,112z"/>
	<path class="st2" d="M186.6,128.7c0,0.1,0,0.3-0.1,0.4s-0.2,0.2-0.4,0.3c-0.2,0.1-0.4,0.1-0.7,0.2c-0.3,0-0.7,0.1-1.1,0.1
		c-0.4,0-0.8,0-1.1-0.1s-0.5-0.1-0.7-0.2c-0.2-0.1-0.3-0.1-0.4-0.3s-0.1-0.2-0.1-0.4V98.5h-0.1l-12.2,30.4c-0.1,0.1-0.1,0.2-0.2,0.3
		c-0.1,0.1-0.2,0.2-0.4,0.2c-0.2,0.1-0.4,0.1-0.7,0.1c-0.3,0-0.6,0-0.9,0c-0.4,0-0.7,0-1-0.1s-0.5-0.1-0.7-0.1
		c-0.2-0.1-0.3-0.1-0.4-0.2c-0.1-0.1-0.2-0.2-0.2-0.3l-11.7-30.4h0v30.3c0,0.1,0,0.3-0.1,0.4s-0.2,0.2-0.4,0.3
		c-0.2,0.1-0.4,0.1-0.7,0.2s-0.7,0.1-1.1,0.1c-0.4,0-0.8,0-1.1-0.1s-0.5-0.1-0.7-0.2c-0.2-0.1-0.3-0.1-0.4-0.3
		c-0.1-0.1-0.1-0.2-0.1-0.4v-32c0-0.8,0.2-1.3,0.6-1.6s0.8-0.5,1.3-0.5h2.8c0.6,0,1.1,0.1,1.5,0.2s0.8,0.3,1.1,0.5
		c0.3,0.2,0.6,0.5,0.8,0.9s0.4,0.8,0.6,1.3l9.9,25.2h0.1L178,97.6c0.2-0.5,0.4-1,0.7-1.4c0.2-0.4,0.5-0.7,0.8-0.9
		c0.3-0.2,0.6-0.4,0.9-0.5c0.3-0.1,0.7-0.1,1.2-0.1h3c0.3,0,0.5,0,0.8,0.1c0.2,0.1,0.5,0.2,0.6,0.4s0.3,0.4,0.4,0.6
		c0.1,0.3,0.2,0.6,0.2,1V128.7z"/>
	<path class="st2" d="M215.1,127.5c0,0.3,0,0.6-0.1,0.8c0,0.2-0.1,0.4-0.2,0.6c-0.1,0.2-0.2,0.3-0.3,0.3c-0.1,0.1-0.2,0.1-0.4,0.1
		h-16.7c-0.4,0-0.8-0.1-1.2-0.4c-0.4-0.3-0.6-0.8-0.6-1.5v-31c0-0.7,0.2-1.2,0.6-1.5c0.4-0.3,0.8-0.4,1.2-0.4H214
		c0.1,0,0.3,0,0.4,0.1c0.1,0.1,0.2,0.2,0.3,0.3c0.1,0.2,0.1,0.4,0.2,0.6c0,0.2,0.1,0.5,0.1,0.9c0,0.3,0,0.6-0.1,0.8
		c0,0.2-0.1,0.4-0.2,0.6c-0.1,0.2-0.2,0.3-0.3,0.3c-0.1,0.1-0.2,0.1-0.4,0.1h-13.6v10.9h11.7c0.1,0,0.3,0,0.4,0.1
		c0.1,0.1,0.2,0.2,0.3,0.3c0.1,0.1,0.1,0.3,0.2,0.6c0,0.3,0.1,0.5,0.1,0.9c0,0.3,0,0.6-0.1,0.8c0,0.2-0.1,0.4-0.2,0.6
		c-0.1,0.1-0.2,0.2-0.3,0.3c-0.1,0.1-0.2,0.1-0.4,0.1h-11.7v12.4h13.8c0.1,0,0.3,0,0.4,0.1c0.1,0.1,0.2,0.2,0.3,0.3
		c0.1,0.2,0.2,0.3,0.2,0.6C215.1,126.9,215.1,127.2,215.1,127.5z"/>
	<path class="st2" d="M248.9,127.5c0,0.4-0.1,0.7-0.2,0.9c-0.1,0.3-0.3,0.5-0.5,0.6c-0.2,0.2-0.4,0.3-0.7,0.3
		c-0.2,0.1-0.5,0.1-0.7,0.1h-1.5c-0.5,0-0.9,0-1.3-0.1c-0.4-0.1-0.7-0.3-1-0.5c-0.3-0.3-0.6-0.6-1-1.1c-0.3-0.4-0.7-1-1-1.7
		l-10.6-19.8c-0.6-1-1.1-2.1-1.7-3.2s-1.1-2.2-1.6-3.3h-0.1c0,1.3,0.1,2.6,0.1,3.9c0,1.3,0,2.7,0,4v21c0,0.1,0,0.2-0.1,0.4
		c-0.1,0.1-0.2,0.2-0.4,0.3c-0.2,0.1-0.4,0.1-0.7,0.2c-0.3,0-0.7,0.1-1.1,0.1c-0.5,0-0.8,0-1.1-0.1s-0.5-0.1-0.7-0.2
		c-0.2-0.1-0.3-0.2-0.4-0.3c-0.1-0.1-0.1-0.2-0.1-0.4V96.7c0-0.7,0.2-1.2,0.6-1.5c0.4-0.3,0.9-0.5,1.3-0.5h2.3c0.5,0,1,0,1.3,0.1
		c0.4,0.1,0.7,0.2,1,0.4c0.3,0.2,0.6,0.5,0.8,0.9c0.3,0.4,0.5,0.8,0.8,1.4l8.1,15.3c0.5,0.9,1,1.8,1.5,2.7c0.5,0.9,0.9,1.8,1.3,2.6
		s0.9,1.7,1.3,2.5c0.4,0.8,0.8,1.7,1.3,2.5h0c0-1.4-0.1-2.9-0.1-4.4c0-1.5,0-3,0-4.4V95.4c0-0.1,0-0.2,0.1-0.3s0.2-0.2,0.4-0.3
		c0.2-0.1,0.4-0.1,0.7-0.2c0.3,0,0.7-0.1,1.1-0.1c0.4,0,0.8,0,1.1,0.1c0.3,0,0.5,0.1,0.7,0.2c0.2,0.1,0.3,0.2,0.4,0.3
		s0.1,0.2,0.1,0.3V127.5z"/>
	<path class="st2" d="M299.7,111.6c0,2.8-0.3,5.3-1,7.6c-0.7,2.3-1.7,4.2-3,5.8c-1.3,1.6-3,2.8-5,3.7c-2,0.9-4.3,1.3-7,1.3
		c-2.6,0-4.9-0.4-6.8-1.2c-1.9-0.8-3.5-1.9-4.7-3.4c-1.2-1.5-2.2-3.3-2.8-5.5c-0.6-2.2-0.9-4.7-0.9-7.6c0-2.7,0.3-5.2,1-7.5
		c0.7-2.2,1.7-4.1,3-5.7c1.3-1.6,3-2.8,5-3.6s4.3-1.3,7-1.3c2.6,0,4.8,0.4,6.7,1.2c1.9,0.8,3.5,1.9,4.7,3.4c1.3,1.5,2.2,3.3,2.8,5.5
		C299.4,106.3,299.7,108.8,299.7,111.6z M294.8,112c0-2-0.2-3.8-0.5-5.5c-0.3-1.7-0.9-3.2-1.7-4.4c-0.8-1.2-1.9-2.2-3.3-2.9
		c-1.4-0.7-3-1-5-1c-2,0-3.7,0.4-5,1.1s-2.5,1.8-3.3,3c-0.8,1.3-1.5,2.7-1.8,4.4c-0.4,1.7-0.5,3.4-0.5,5.3c0,2,0.2,3.9,0.5,5.6
		s0.9,3.2,1.7,4.4c0.8,1.2,1.9,2.2,3.2,2.9c1.3,0.7,3,1,5.1,1c2,0,3.7-0.4,5.1-1.1c1.4-0.8,2.5-1.8,3.3-3c0.8-1.3,1.4-2.8,1.8-4.4
		C294.6,115.6,294.8,113.8,294.8,112z"/>
	<path class="st2" d="M333.3,127.5c0,0.4-0.1,0.7-0.2,0.9c-0.1,0.3-0.3,0.5-0.5,0.6c-0.2,0.2-0.4,0.3-0.7,0.3
		c-0.2,0.1-0.5,0.1-0.7,0.1h-1.5c-0.5,0-0.9,0-1.3-0.1c-0.4-0.1-0.7-0.3-1-0.5c-0.3-0.3-0.6-0.6-1-1.1c-0.3-0.4-0.7-1-1-1.7
		l-10.6-19.8c-0.6-1-1.1-2.1-1.7-3.2s-1.1-2.2-1.6-3.3h-0.1c0,1.3,0.1,2.6,0.1,3.9c0,1.3,0,2.7,0,4v21c0,0.1,0,0.2-0.1,0.4
		c-0.1,0.1-0.2,0.2-0.4,0.3c-0.2,0.1-0.4,0.1-0.7,0.2c-0.3,0-0.7,0.1-1.1,0.1c-0.5,0-0.8,0-1.1-0.1s-0.5-0.1-0.7-0.2
		c-0.2-0.1-0.3-0.2-0.4-0.3c-0.1-0.1-0.1-0.2-0.1-0.4V96.7c0-0.7,0.2-1.2,0.6-1.5c0.4-0.3,0.9-0.5,1.3-0.5h2.3c0.5,0,1,0,1.3,0.1
		c0.4,0.1,0.7,0.2,1,0.4c0.3,0.2,0.6,0.5,0.8,0.9c0.3,0.4,0.5,0.8,0.8,1.4l8.1,15.3c0.5,0.9,1,1.8,1.5,2.7c0.5,0.9,0.9,1.8,1.3,2.6
		s0.9,1.7,1.3,2.5c0.4,0.8,0.8,1.7,1.3,2.5h0c0-1.4-0.1-2.9-0.1-4.4c0-1.5,0-3,0-4.4V95.4c0-0.1,0-0.2,0.1-0.3s0.2-0.2,0.4-0.3
		c0.2-0.1,0.4-0.1,0.7-0.2c0.3,0,0.7-0.1,1.1-0.1c0.4,0,0.8,0,1.1,0.1c0.3,0,0.5,0.1,0.7,0.2c0.2,0.1,0.3,0.2,0.4,0.3
		s0.1,0.2,0.1,0.3V127.5z"/>
	<path class="st2" d="M373.6,119.7c0,1.6-0.3,3.1-0.9,4.3c-0.6,1.3-1.4,2.4-2.5,3.2c-1.1,0.9-2.3,1.6-3.8,2c-1.4,0.4-3,0.7-4.7,0.7
		c-1.2,0-2.2-0.1-3.2-0.3c-1-0.2-1.9-0.4-2.7-0.7c-0.8-0.3-1.4-0.6-2-0.9c-0.5-0.3-0.9-0.6-1.1-0.8s-0.4-0.5-0.5-0.8
		c-0.1-0.3-0.1-0.8-0.1-1.3c0-0.4,0-0.7,0.1-1c0-0.3,0.1-0.5,0.2-0.6c0.1-0.2,0.2-0.3,0.3-0.3s0.2-0.1,0.4-0.1
		c0.3,0,0.6,0.2,1.1,0.5c0.5,0.3,1,0.6,1.8,1c0.7,0.4,1.6,0.7,2.6,1c1,0.3,2.2,0.5,3.5,0.5c1,0,1.9-0.1,2.8-0.4
		c0.8-0.3,1.5-0.6,2.1-1.1s1.1-1.1,1.4-1.8c0.3-0.7,0.5-1.5,0.5-2.4c0-1-0.2-1.8-0.7-2.5s-1-1.3-1.8-1.8c-0.7-0.5-1.6-1-2.5-1.5
		c-0.9-0.4-1.9-0.9-2.9-1.3c-1-0.5-1.9-1-2.9-1.5c-0.9-0.6-1.8-1.2-2.5-2c-0.7-0.8-1.3-1.6-1.8-2.6c-0.5-1-0.7-2.2-0.7-3.6
		c0-1.5,0.3-2.7,0.8-3.9c0.5-1.1,1.3-2.1,2.2-2.9c0.9-0.8,2.1-1.4,3.4-1.8c1.3-0.4,2.7-0.6,4.2-0.6c0.8,0,1.5,0.1,2.3,0.2
		c0.8,0.1,1.5,0.3,2.2,0.5c0.7,0.2,1.3,0.5,1.8,0.8s0.9,0.5,1.1,0.7c0.2,0.2,0.3,0.3,0.3,0.4c0.1,0.1,0.1,0.2,0.1,0.4
		s0.1,0.3,0.1,0.6c0,0.2,0,0.5,0,0.8c0,0.3,0,0.6,0,0.9c0,0.3-0.1,0.5-0.1,0.6c-0.1,0.2-0.1,0.3-0.2,0.4c-0.1,0.1-0.2,0.1-0.3,0.1
		c-0.2,0-0.5-0.1-0.9-0.4c-0.4-0.3-0.9-0.5-1.5-0.8c-0.6-0.3-1.3-0.6-2.2-0.9c-0.8-0.3-1.8-0.4-2.8-0.4c-1,0-1.8,0.1-2.5,0.4
		s-1.3,0.6-1.8,1s-0.8,0.9-1,1.5c-0.2,0.6-0.3,1.2-0.3,1.9c0,1,0.2,1.8,0.7,2.5c0.4,0.7,1,1.3,1.8,1.9s1.6,1,2.5,1.5
		c0.9,0.4,1.9,0.9,2.9,1.4c1,0.5,2,1,2.9,1.5c0.9,0.5,1.8,1.2,2.5,1.9c0.7,0.7,1.3,1.6,1.8,2.6C373.4,117.1,373.6,118.3,373.6,119.7
		z"/>
	<path class="st2" d="M401.6,104.8c0,1.7-0.3,3.3-0.9,4.7c-0.6,1.4-1.4,2.6-2.5,3.6c-1.1,1-2.4,1.7-3.9,2.3s-3.4,0.8-5.5,0.8h-3.9
		v12.5c0,0.1,0,0.3-0.1,0.4c-0.1,0.1-0.2,0.2-0.4,0.3c-0.2,0.1-0.4,0.1-0.7,0.2c-0.3,0-0.7,0.1-1.1,0.1s-0.8,0-1.1-0.1
		c-0.3,0-0.5-0.1-0.7-0.2c-0.2-0.1-0.3-0.1-0.4-0.3s-0.1-0.2-0.1-0.4V96.7c0-0.7,0.2-1.2,0.6-1.5c0.4-0.3,0.8-0.5,1.3-0.5h7.4
		c0.8,0,1.5,0,2.2,0.1c0.7,0.1,1.5,0.2,2.4,0.4c0.9,0.2,1.9,0.6,2.9,1.2c1,0.6,1.8,1.3,2.5,2.1c0.7,0.8,1.2,1.8,1.6,2.9
		C401.4,102.3,401.6,103.5,401.6,104.8z M396.7,105.2c0-1.4-0.3-2.6-0.8-3.5c-0.5-0.9-1.2-1.7-2-2.1c-0.8-0.5-1.6-0.8-2.4-0.9
		c-0.8-0.1-1.6-0.2-2.4-0.2h-4.3v13.9h4.2c1.4,0,2.6-0.2,3.5-0.5c0.9-0.4,1.7-0.9,2.3-1.5c0.6-0.6,1.1-1.4,1.4-2.3
		C396.5,107.2,396.7,106.3,396.7,105.2z"/>
	<path class="st2" d="M428,127.5c0,0.3,0,0.6-0.1,0.8c0,0.2-0.1,0.4-0.2,0.6c-0.1,0.2-0.2,0.3-0.3,0.3s-0.2,0.1-0.4,0.1h-16.7
		c-0.4,0-0.8-0.1-1.2-0.4c-0.4-0.3-0.6-0.8-0.6-1.5v-31c0-0.7,0.2-1.2,0.6-1.5c0.4-0.3,0.8-0.4,1.2-0.4h16.5c0.1,0,0.3,0,0.4,0.1
		c0.1,0.1,0.2,0.2,0.3,0.3c0.1,0.2,0.1,0.4,0.2,0.6c0,0.2,0.1,0.5,0.1,0.9c0,0.3,0,0.6-0.1,0.8c0,0.2-0.1,0.4-0.2,0.6
		c-0.1,0.2-0.2,0.3-0.3,0.3c-0.1,0.1-0.2,0.1-0.4,0.1h-13.6v10.9h11.7c0.1,0,0.3,0,0.4,0.1c0.1,0.1,0.2,0.2,0.3,0.3
		c0.1,0.1,0.1,0.3,0.2,0.6s0.1,0.5,0.1,0.9c0,0.3,0,0.6-0.1,0.8s-0.1,0.4-0.2,0.6c-0.1,0.1-0.2,0.2-0.3,0.3
		c-0.1,0.1-0.2,0.1-0.4,0.1h-11.7v12.4H427c0.1,0,0.3,0,0.4,0.1c0.1,0.1,0.2,0.2,0.3,0.3c0.1,0.2,0.2,0.3,0.2,0.6
		C427.9,126.9,428,127.2,428,127.5z"/>
	<path class="st2" d="M458,124.5c0,0.3,0,0.5,0,0.8c0,0.2,0,0.4-0.1,0.6s-0.1,0.3-0.2,0.4c-0.1,0.1-0.2,0.3-0.4,0.5
		c-0.2,0.2-0.6,0.5-1.1,0.8c-0.6,0.4-1.3,0.7-2.1,1.1c-0.9,0.3-1.8,0.6-2.9,0.9c-1.1,0.2-2.3,0.4-3.6,0.4c-2.3,0-4.3-0.4-6.1-1.1
		c-1.8-0.8-3.4-1.9-4.6-3.3s-2.3-3.3-3-5.4c-0.7-2.2-1-4.6-1-7.5c0-2.9,0.4-5.5,1.1-7.7c0.7-2.3,1.8-4.2,3.1-5.7
		c1.3-1.6,3-2.8,4.8-3.6c1.9-0.8,3.9-1.2,6.2-1.2c1,0,2,0.1,2.9,0.3c0.9,0.2,1.8,0.4,2.6,0.7c0.8,0.3,1.5,0.6,2.1,1
		c0.6,0.4,1.1,0.7,1.3,0.9c0.2,0.2,0.4,0.4,0.5,0.5c0.1,0.1,0.1,0.3,0.2,0.4c0,0.2,0.1,0.4,0.1,0.6c0,0.2,0,0.5,0,0.8
		c0,0.4,0,0.7-0.1,0.9c0,0.3-0.1,0.5-0.2,0.6s-0.2,0.3-0.3,0.4c-0.1,0.1-0.2,0.1-0.4,0.1c-0.3,0-0.6-0.2-1.1-0.5
		c-0.5-0.3-1-0.7-1.7-1.2c-0.7-0.4-1.6-0.8-2.6-1.2c-1-0.3-2.2-0.5-3.7-0.5c-1.5,0-3,0.3-4.2,0.9c-1.3,0.6-2.4,1.5-3.3,2.7
		c-0.9,1.2-1.6,2.7-2.1,4.4c-0.5,1.7-0.7,3.7-0.7,5.9c0,2.2,0.2,4.1,0.7,5.8c0.5,1.7,1.2,3.1,2.1,4.2c0.9,1.1,2,2,3.3,2.6
		c1.3,0.6,2.8,0.9,4.4,0.9c1.4,0,2.6-0.2,3.6-0.5c1-0.3,1.9-0.7,2.6-1.1s1.3-0.8,1.8-1.1c0.5-0.3,0.8-0.5,1.1-0.5
		c0.1,0,0.2,0,0.3,0.1s0.2,0.2,0.2,0.3c0.1,0.2,0.1,0.4,0.1,0.6C458,123.8,458,124.1,458,124.5z"/>
	<path class="st2" d="M486.2,96.7c0,0.3,0,0.6-0.1,0.9c0,0.3-0.1,0.5-0.2,0.6c-0.1,0.2-0.2,0.3-0.3,0.3s-0.2,0.1-0.4,0.1h-9.8v30.1
		c0,0.1,0,0.3-0.1,0.4c-0.1,0.1-0.2,0.2-0.4,0.3c-0.2,0.1-0.4,0.1-0.7,0.2c-0.3,0-0.7,0.1-1.1,0.1c-0.4,0-0.8,0-1.1-0.1
		s-0.5-0.1-0.7-0.2c-0.2-0.1-0.3-0.1-0.4-0.3c-0.1-0.1-0.1-0.2-0.1-0.4V98.6h-9.8c-0.1,0-0.3,0-0.4-0.1c-0.1-0.1-0.2-0.2-0.3-0.3
		c-0.1-0.2-0.1-0.4-0.2-0.6c0-0.3-0.1-0.5-0.1-0.9s0-0.6,0.1-0.9s0.1-0.5,0.2-0.6c0.1-0.2,0.2-0.3,0.3-0.3c0.1-0.1,0.2-0.1,0.4-0.1
		h24.2c0.1,0,0.3,0,0.4,0.1s0.2,0.2,0.3,0.3c0.1,0.2,0.1,0.4,0.2,0.6C486.2,96,486.2,96.3,486.2,96.7z"/>
	<path class="st2" d="M514.4,128.7c0,0.1,0,0.3-0.1,0.4s-0.2,0.2-0.3,0.3c-0.2,0.1-0.4,0.1-0.8,0.2s-0.8,0.1-1.3,0.1
		c-0.5,0-0.8,0-1.1-0.1c-0.3,0-0.5-0.1-0.7-0.2c-0.2-0.1-0.3-0.2-0.4-0.3c-0.1-0.1-0.2-0.3-0.3-0.5l-3.2-8.2
		c-0.4-0.9-0.8-1.8-1.2-2.6c-0.4-0.8-0.9-1.5-1.4-2c-0.6-0.6-1.2-1-2-1.3s-1.7-0.5-2.7-0.5h-3.1v14.8c0,0.1,0,0.3-0.1,0.4
		c-0.1,0.1-0.2,0.2-0.4,0.3c-0.2,0.1-0.4,0.1-0.7,0.2c-0.3,0-0.7,0.1-1.1,0.1s-0.8,0-1.1-0.1c-0.3,0-0.5-0.1-0.7-0.2
		c-0.2-0.1-0.3-0.1-0.4-0.3s-0.1-0.2-0.1-0.4V96.5c0-0.7,0.2-1.2,0.6-1.5c0.4-0.3,0.8-0.4,1.2-0.4h7.4c0.9,0,1.6,0,2.2,0.1
		c0.6,0,1.1,0.1,1.6,0.1c1.3,0.2,2.5,0.6,3.6,1.1c1,0.5,1.9,1.1,2.6,1.9s1.2,1.7,1.6,2.6c0.3,1,0.5,2.1,0.5,3.3
		c0,1.2-0.2,2.2-0.5,3.1c-0.3,0.9-0.8,1.7-1.4,2.4s-1.3,1.3-2.1,1.8c-0.8,0.5-1.7,1-2.8,1.3c0.6,0.3,1.1,0.6,1.6,1
		c0.5,0.4,0.9,0.8,1.3,1.4c0.4,0.5,0.8,1.2,1.1,1.9c0.4,0.7,0.7,1.5,1.1,2.4l3.1,7.7c0.3,0.6,0.4,1.1,0.5,1.4
		C514.4,128.4,514.4,128.6,514.4,128.7z M507.5,104.3c0-1.4-0.3-2.5-0.9-3.5c-0.6-0.9-1.6-1.6-3.1-2c-0.4-0.1-1-0.2-1.5-0.3
		c-0.6-0.1-1.3-0.1-2.2-0.1h-3.9v11.7h4.5c1.2,0,2.3-0.1,3.2-0.4c0.9-0.3,1.6-0.7,2.2-1.2c0.6-0.5,1-1.2,1.3-1.9
		C507.3,105.9,507.5,105.1,507.5,104.3z"/>
	<path class="st2" d="M547.2,116.6c0,2.1-0.3,4-0.9,5.7c-0.6,1.7-1.5,3.1-2.6,4.2c-1.1,1.1-2.5,2-4.2,2.6s-3.5,0.9-5.6,0.9
		c-1.9,0-3.7-0.3-5.2-0.8s-2.9-1.4-4.1-2.5c-1.1-1.1-2-2.4-2.6-4.1c-0.6-1.6-0.9-3.5-0.9-5.6V95.4c0-0.1,0-0.3,0.1-0.4
		s0.2-0.2,0.4-0.3s0.4-0.1,0.7-0.2s0.7-0.1,1.1-0.1c0.4,0,0.8,0,1.1,0.1c0.3,0,0.5,0.1,0.7,0.2s0.3,0.1,0.4,0.3
		c0.1,0.1,0.1,0.2,0.1,0.4v21c0,1.6,0.2,3,0.6,4.2c0.4,1.2,1,2.2,1.7,3c0.7,0.8,1.6,1.4,2.7,1.8c1,0.4,2.2,0.6,3.5,0.6
		c1.3,0,2.5-0.2,3.6-0.6c1-0.4,1.9-1,2.7-1.8c0.7-0.8,1.3-1.8,1.7-2.9c0.4-1.2,0.6-2.5,0.6-4.1V95.4c0-0.1,0-0.3,0.1-0.4
		s0.2-0.2,0.4-0.3s0.4-0.1,0.7-0.2c0.3,0,0.7-0.1,1.1-0.1c0.4,0,0.8,0,1.1,0.1c0.3,0,0.5,0.1,0.7,0.2c0.2,0.1,0.3,0.1,0.4,0.3
		c0.1,0.1,0.1,0.2,0.1,0.4V116.6z"/>
	<path class="st2" d="M594.2,128.7c0,0.1,0,0.3-0.1,0.4s-0.2,0.2-0.4,0.3c-0.2,0.1-0.4,0.1-0.7,0.2c-0.3,0-0.7,0.1-1.1,0.1
		c-0.4,0-0.8,0-1.1-0.1c-0.3,0-0.5-0.1-0.7-0.2c-0.2-0.1-0.3-0.1-0.4-0.3c-0.1-0.1-0.1-0.2-0.1-0.4V98.5h-0.1l-12.2,30.4
		c-0.1,0.1-0.1,0.2-0.2,0.3c-0.1,0.1-0.2,0.2-0.4,0.2c-0.2,0.1-0.4,0.1-0.7,0.1c-0.3,0-0.6,0-0.9,0c-0.4,0-0.7,0-1-0.1
		c-0.3,0-0.5-0.1-0.7-0.1s-0.3-0.1-0.4-0.2c-0.1-0.1-0.2-0.2-0.2-0.3L561,98.5h0v30.3c0,0.1,0,0.3-0.1,0.4c-0.1,0.1-0.2,0.2-0.4,0.3
		c-0.2,0.1-0.4,0.1-0.7,0.2c-0.3,0-0.7,0.1-1.1,0.1c-0.4,0-0.8,0-1.1-0.1s-0.5-0.1-0.7-0.2c-0.2-0.1-0.3-0.1-0.4-0.3
		s-0.1-0.2-0.1-0.4v-32c0-0.8,0.2-1.3,0.6-1.6c0.4-0.3,0.8-0.5,1.3-0.5h2.8c0.6,0,1.1,0.1,1.5,0.2c0.4,0.1,0.8,0.3,1.1,0.5
		c0.3,0.2,0.6,0.5,0.8,0.9s0.4,0.8,0.6,1.3l9.9,25.2h0.1l10.3-25.1c0.2-0.5,0.4-1,0.7-1.4c0.2-0.4,0.5-0.7,0.8-0.9
		c0.3-0.2,0.6-0.4,0.9-0.5c0.3-0.1,0.7-0.1,1.2-0.1h3c0.3,0,0.5,0,0.8,0.1c0.2,0.1,0.5,0.2,0.6,0.4s0.3,0.4,0.4,0.6s0.2,0.6,0.2,1
		V128.7z"/>
</g>
</svg>
